<svg width="175" height="60" viewBox="0 0 175 60" fill="none" xmlns="http://www.w3.org/2000/svg">
<rect x="0.767399" y="0.711735" width="173.231" height="58.4269" rx="5.63768" fill="#DBDBDB" stroke="#DBDBDB" stroke-width="1.02503"/>
<path fill-rule="evenodd" clip-rule="evenodd" d="M33.6253 17.6954C34.7379 16.304 35.4991 14.4111 35.2878 12.4902C33.6775 12.5615 31.6637 13.6041 30.504 14.9649C29.478 16.164 28.5615 18.1295 28.7983 19.9778C30.6072 20.1128 32.4644 19.0651 33.6253 17.6954ZM37.6989 29.7608C37.6622 25.6887 41.0077 23.6919 41.2095 23.5715L41.2135 23.5691C39.2901 20.7647 36.3088 20.3815 35.2611 20.351C33.7293 20.1898 32.2256 20.7866 30.9968 21.2743L30.9968 21.2743L30.9968 21.2743L30.9968 21.2743L30.9968 21.2743L30.9968 21.2743L30.9968 21.2743L30.9968 21.2743L30.9967 21.2743C30.217 21.5838 29.5481 21.8493 29.0529 21.8493C28.4891 21.8493 27.8008 21.5727 27.0295 21.2628L27.0295 21.2628L27.0295 21.2628L27.0295 21.2628L27.0295 21.2628L27.0295 21.2628L27.0295 21.2628L27.0295 21.2628L27.0295 21.2628L27.0294 21.2628L27.0294 21.2627C26.0209 20.8575 24.8703 20.3952 23.6708 20.4197C20.9466 20.4617 18.3982 22.039 17.0004 24.4881C14.1159 29.482 16.2672 36.8207 19.0308 40.8572C20.4133 42.8354 22.0287 45.0414 24.1431 44.9638C25.1026 44.9248 25.7833 44.6382 26.4865 44.3422L26.4866 44.3422L26.4866 44.3422L26.4866 44.3421L26.4866 44.3421L26.4866 44.3421L26.4867 44.3421C27.2994 43.9999 28.1423 43.645 29.4806 43.645C30.743 43.645 31.5501 43.9886 32.3245 44.3182L32.3245 44.3182L32.3245 44.3182L32.3246 44.3182L32.3246 44.3182C33.0674 44.6344 33.7802 44.9378 34.836 44.9129C37.056 44.8798 38.4537 42.9283 39.7878 40.9323C41.3854 38.669 42.027 36.4349 42.0524 36.3204C42.0015 36.3038 37.7422 34.6782 37.6989 29.7608ZM56.5233 13.5873H53.535V22.4782H56.5233C59.1665 22.4782 60.7192 20.8331 60.7192 18.0297C60.7192 15.2324 59.1604 13.5873 56.5233 13.5873ZM54.6442 14.5847V21.4793H56.4494C58.4642 21.4793 59.5856 20.247 59.5856 18.0413C59.5856 15.817 58.4704 14.5847 56.4494 14.5847H54.6442ZM62.0332 19.2733C62.0332 21.3127 63.2285 22.5881 65.003 22.5881C66.7713 22.5881 67.9666 21.3127 67.9666 19.2733C67.9666 17.2277 66.7713 15.9585 65.003 15.9585C63.2285 15.9585 62.0332 17.2277 62.0332 19.2733ZM65.003 21.6461C66.1367 21.6461 66.8761 20.7835 66.8761 19.274C66.8761 17.7644 66.1367 16.9018 65.003 16.9018C63.8693 16.9018 63.1238 17.7644 63.1238 19.274C63.1238 20.7835 63.8693 21.6461 65.003 21.6461ZM75.8302 22.4792L77.617 16.0714H76.5573L75.2757 21.2839H75.251L73.797 16.0714H72.7618L71.3139 21.2839H71.2893L70.0077 16.0714H68.9418L70.7348 22.4792H71.8253L73.2671 17.5193H73.2917L74.7396 22.4792H75.8302ZM78.9125 22.478V16.0702H79.9229V17.093H79.9476C80.3049 16.4029 80.9889 15.9593 81.9808 15.9593C83.3856 15.9593 84.1989 16.865 84.1989 18.3191V22.478H83.1268V18.5101C83.1268 17.475 82.6401 16.9081 81.6543 16.9081C80.6438 16.9081 79.9845 17.6228 79.9845 18.7072V22.478H78.9125ZM86.0367 13.5889V22.4797H87.1087V13.5889H86.0367ZM91.6328 22.5889C89.8584 22.5889 88.6631 21.3135 88.6631 19.2741C88.6631 17.2285 89.8584 15.9593 91.6328 15.9593C93.4011 15.9593 94.5965 17.2285 94.5965 19.2741C94.5965 21.3135 93.4011 22.5889 91.6328 22.5889ZM93.5059 19.2747C93.5059 20.7843 92.7666 21.6469 91.6329 21.6469C90.4992 21.6469 89.7536 20.7843 89.7536 19.2747C89.7536 17.7652 90.4992 16.9026 91.6329 16.9026C92.7666 16.9026 93.5059 17.7652 93.5059 19.2747ZM97.9683 22.5897C96.6929 22.5897 95.8365 21.8195 95.8365 20.6673C95.8365 19.5706 96.6806 18.8805 98.1594 18.7943L99.9954 18.6895V18.1535C99.9954 17.371 99.4779 16.9027 98.5906 16.9027C97.765 16.9027 97.2475 17.2909 97.1119 17.9193H96.0768C96.1507 16.8103 97.0996 15.96 98.6153 15.96C100.119 15.96 101.068 16.7733 101.068 18.0487V22.4788H100.051V21.3759H100.026C99.6442 22.1091 98.8309 22.5897 97.9683 22.5897ZM99.9955 20.0457C99.9955 20.9699 99.2191 21.6785 98.2087 21.6785C97.4385 21.6785 96.9271 21.278 96.9271 20.668C96.9271 20.0642 97.42 19.6822 98.2826 19.6267L99.9955 19.522V20.0457ZM105.277 22.5922C103.645 22.5922 102.536 21.286 102.536 19.2774C102.536 17.2687 103.639 15.9625 105.253 15.9625C106.171 15.9625 106.91 16.4123 107.292 17.1147H107.317V13.5904H108.389V22.4813H107.366V21.3969H107.348C106.935 22.1362 106.202 22.5922 105.277 22.5922ZM103.632 19.2763C103.632 17.8283 104.347 16.9041 105.481 16.9041C106.584 16.9041 107.323 17.8468 107.323 19.2763C107.323 20.7119 106.584 21.6484 105.481 21.6484C104.347 21.6484 103.632 20.7304 103.632 19.2763ZM115.921 22.5912C114.147 22.5912 112.952 21.3158 112.952 19.2764C112.952 17.2308 114.147 15.9616 115.921 15.9616C117.69 15.9616 118.885 17.2308 118.885 19.2764C118.885 21.3158 117.69 22.5912 115.921 22.5912ZM117.794 19.277C117.794 20.7866 117.055 21.6492 115.921 21.6492C114.788 21.6492 114.042 20.7866 114.042 19.277C114.042 17.7675 114.788 16.9049 115.921 16.9049C117.055 16.9049 117.794 17.7675 117.794 19.277ZM120.384 22.4811V16.0732H121.394V17.096H121.419C121.776 16.406 122.46 15.9623 123.452 15.9623C124.857 15.9623 125.67 16.8681 125.67 18.3221V22.4811H124.598V18.5131C124.598 17.478 124.111 16.9112 123.126 16.9112C122.115 16.9112 121.456 17.6259 121.456 18.7103V22.4811H120.384ZM131.878 14.5269H130.806V16.0734H129.851V16.9545H130.806V20.8177C130.806 22.0499 131.262 22.5305 132.439 22.5305C132.691 22.5305 132.987 22.512 133.117 22.4812V21.5817C133.043 21.594 132.796 21.6125 132.673 21.6125C132.125 21.6125 131.878 21.3475 131.878 20.7622V16.9545H133.123V16.0734H131.878V14.5269ZM134.739 22.4828V13.5919H135.811V17.0978H135.835C136.193 16.383 136.895 15.9641 137.869 15.9641C139.273 15.9641 140.124 16.9129 140.124 18.3424V22.4828H139.052V18.5395C139.052 17.5229 138.54 16.9129 137.536 16.9129C136.47 16.9129 135.811 17.64 135.811 18.749V22.4828H134.739ZM147.211 20.645H146.157C145.979 21.2488 145.381 21.6616 144.568 21.6616C143.415 21.6616 142.695 20.8545 142.695 19.6284V19.5667H147.291V19.1601C147.291 17.2193 146.225 15.9623 144.494 15.9623C142.725 15.9623 141.592 17.3117 141.592 19.3018C141.592 21.3166 142.707 22.592 144.543 22.592C145.942 22.592 147.026 21.7664 147.211 20.645ZM144.475 16.8937C143.471 16.8937 142.768 17.6638 142.701 18.7297H146.182C146.157 17.6577 145.486 16.8937 144.475 16.8937ZM62.3644 39.6906L63.9171 44.278H66.7048L60.5765 27.3045H57.7299L51.6016 44.278H54.3423L55.895 39.6906H62.3644ZM59.0945 30.1278L56.5655 37.5735H61.694L59.165 30.1278H59.0945ZM80.4996 38.0928C80.4996 34.1759 78.4294 31.7057 75.2888 31.7057C73.5009 31.7057 72.0776 32.6115 71.3483 34.0347H71.3012V31.9057H68.8429V48.3734H71.3836V42.245H71.4424C72.1482 43.6213 73.5597 44.4917 75.3358 44.4917C78.4412 44.4917 80.4996 42.0098 80.4996 38.0928ZM74.6183 42.3389C76.6297 42.3389 77.8883 40.6921 77.8883 38.0926C77.8883 35.5048 76.6297 33.8463 74.6183 33.8463C72.6774 33.8463 71.3718 35.5401 71.3718 38.0926C71.3718 40.6686 72.6657 42.3389 74.6183 42.3389ZM94.6825 38.0936C94.6825 34.1767 92.6123 31.7065 89.4717 31.7065C87.6838 31.7065 86.2605 32.6122 85.5312 34.0355H85.4841V31.9065H83.0258V48.3741H85.5665V42.2458H85.6253C86.3311 43.622 87.7426 44.4925 89.5187 44.4925C92.6241 44.4925 94.6825 42.0106 94.6825 38.0936ZM88.8012 42.3397C90.8126 42.3397 92.0712 40.6929 92.0712 38.0934C92.0712 35.5056 90.8126 33.847 88.8012 33.847C86.8603 33.847 85.5547 35.5409 85.5547 38.0934C85.5547 40.6694 86.8486 42.3397 88.8012 42.3397ZM104.816 39.5517H102.217C102.381 42.6218 104.922 44.5626 108.686 44.5626C112.709 44.5626 115.238 42.5747 115.238 39.3988C115.238 36.9169 113.791 35.5172 110.309 34.6938L108.439 34.235C106.251 33.694 105.357 32.9882 105.357 31.7884C105.357 30.2828 106.757 29.2477 108.804 29.2477C110.85 29.2477 112.25 30.271 112.403 31.9649H114.967C114.885 29.036 112.427 27.0246 108.839 27.0246C105.216 27.0246 102.664 29.036 102.664 31.9649C102.664 34.3291 104.11 35.7877 107.228 36.5405L109.427 37.0698C111.627 37.6109 112.556 38.399 112.556 39.7164C112.556 41.2338 111.015 42.3395 108.874 42.3395C106.639 42.3395 105.004 41.2338 104.816 39.5517ZM118.611 28.9765H121.163V31.9054H123.516V33.9168H121.163V40.7391C121.163 41.8095 121.634 42.2918 122.669 42.2918C122.928 42.2918 123.34 42.2683 123.504 42.233V44.2444C123.222 44.315 122.657 44.362 122.093 44.362C119.587 44.362 118.611 43.4093 118.611 41.0214V33.9168H116.811V31.9054H118.611V28.9765ZM125.325 38.0939C125.325 42.0814 127.654 44.5163 131.194 44.5163C134.735 44.5163 137.064 42.0814 137.064 38.0939C137.064 34.1181 134.723 31.6833 131.194 31.6833C127.665 31.6833 125.325 34.1181 125.325 38.0939ZM131.194 42.4233C133.194 42.4233 134.476 40.8471 134.476 38.0946C134.476 35.3539 133.182 33.7777 131.194 33.7777C129.206 33.7777 127.912 35.3539 127.912 38.0946C127.912 40.8471 129.206 42.4233 131.194 42.4233ZM139.602 31.908V44.2823H142.142V36.8718C142.142 35.1192 143.154 34.0253 144.789 34.0253C145.283 34.0253 145.73 34.0841 145.93 34.1664V31.8021C145.742 31.7669 145.424 31.708 145.059 31.708C143.601 31.708 142.495 32.5667 142.084 34.0135H142.025V31.908H139.602ZM156.278 40.6471H158.69C158.337 42.9056 156.196 44.517 153.361 44.517C149.726 44.517 147.527 42.0586 147.527 38.1535C147.527 34.2718 149.762 31.684 153.255 31.684C156.69 31.684 158.831 34.1071 158.831 37.8594V38.7298H150.091V38.8827C150.091 41.0353 151.385 42.4586 153.42 42.4586C154.867 42.4586 155.937 41.7293 156.278 40.6471ZM150.103 36.9534C150.232 35.0832 151.479 33.7305 153.255 33.7305C155.031 33.7305 156.231 35.0596 156.29 36.9534H150.103Z" fill="#585757"/>
</svg>
