<svg width="175" height="60" viewBox="0 0 175 60" fill="none" xmlns="http://www.w3.org/2000/svg">
<rect x="1.01117" y="0.711735" width="173.231" height="58.4269" rx="5.63768" fill="#DBDBDB" stroke="#DBDBDB" stroke-width="1.02503"/>
<path fill-rule="evenodd" clip-rule="evenodd" d="M54.0645 16.0383H50.497V17.097H53.0273C52.9021 18.5816 51.6671 19.2147 50.5013 19.2147C49.0097 19.2147 47.7081 18.0411 47.7081 16.3962C47.7081 14.7938 48.9488 13.5598 50.5044 13.5598C51.7049 13.5598 52.4121 14.3248 52.4121 14.3248L53.1533 13.5572C53.1533 13.5572 52.2019 12.498 50.4666 12.498C48.257 12.498 46.5478 14.363 46.5478 16.3772C46.5478 18.3512 48.1557 20.2756 50.5229 20.2756C52.6051 20.2756 54.1293 18.8495 54.1293 16.7403C54.1293 16.2953 54.0645 16.0382 54.0645 16.0382V16.0383ZM54.7365 33.103H62.5758C62.5813 33.1253 62.7175 33.6874 62.7175 34.6453C62.7175 39.2799 59.3685 42.4142 54.7934 42.4142C49.5914 42.4142 46.0582 38.1851 46.0582 33.8478C46.0582 29.4215 49.8144 25.3235 54.6697 25.3237C58.4827 25.3237 60.5733 27.6511 60.5733 27.6511L58.9444 29.3378C58.9444 29.3378 57.3904 27.6564 54.7529 27.6564C51.3346 27.6564 48.6082 30.3681 48.6082 33.8893C48.6082 37.5036 51.4682 40.0826 54.7458 40.0826C57.3075 40.0826 60.0215 38.6913 60.2963 35.4293H54.7365V33.103ZM63.7176 36.8659C63.7176 33.9326 66.0229 31.4179 69.2398 31.4179C71.8839 31.4179 74.7513 33.2916 74.7513 36.9297C74.7513 40.1039 72.2863 42.4038 69.2773 42.4038C65.9535 42.4038 63.7176 39.8422 63.7176 36.8659ZM81.3798 31.4179C78.163 31.4179 75.8576 33.9326 75.8576 36.8659C75.8576 39.8422 78.0936 42.4038 81.4176 42.4038C84.4264 42.4038 86.8915 40.1039 86.8915 36.9297C86.8915 33.2916 84.0243 31.4179 81.3798 31.4179ZM72.3526 36.9156C72.3526 34.8548 70.8536 33.5758 69.2716 33.5758V33.5759C67.4942 33.5759 66.1282 34.9969 66.1282 36.8996C66.1282 38.8441 67.5113 40.2481 69.2644 40.2481C70.8598 40.2481 72.3526 38.9326 72.3526 36.9156ZM81.4118 33.5758C82.9937 33.5758 84.4928 34.8548 84.4928 36.9156C84.4928 38.9326 83 40.2481 81.4044 40.2481C79.6515 40.2481 78.2686 38.8441 78.2686 36.8996C78.2686 34.9969 79.6343 33.5759 81.4118 33.5759V33.5758ZM87.9975 36.9117C87.9975 34.0092 90.3186 31.4233 93.271 31.4233V31.4235C94.5564 31.4235 95.5248 31.9208 96.2329 32.6839V31.7535H98.5358V41.6238C98.5358 45.5019 96.2985 47.3506 93.3627 47.3506C90.6789 47.3506 89.1713 45.7004 88.4221 44.116L90.5334 43.2335C90.8258 43.9413 91.6674 45.1895 93.3452 45.1895C95.0821 45.1895 96.2327 44.0541 96.2327 42.1589V41.0758C95.6182 41.789 94.7858 42.4106 93.2201 42.4106C90.6882 42.4106 87.9975 40.2181 87.9975 36.9117ZM93.4847 33.5772C94.9324 33.5772 96.4189 34.8133 96.4189 36.9242C96.4189 39.0697 94.9355 40.2521 93.4528 40.2521C91.8789 40.2521 90.4141 38.9741 90.4141 36.9445C90.4141 34.8357 91.9353 33.5772 93.4847 33.5772ZM104.136 36.8965C104.136 33.6268 106.475 31.4108 109.26 31.4108L109.26 31.4111C111.457 31.4111 113.116 32.8759 113.828 34.6298L114.21 35.5255L106.845 38.5816C107.285 39.4006 107.995 40.2463 109.539 40.2464C110.914 40.2464 111.738 39.499 112.23 38.7342L114.129 39.9977C113.278 41.1369 111.852 42.4082 109.527 42.4082C106.743 42.4082 104.136 40.3564 104.136 36.8965ZM109.356 33.5226C110.36 33.5226 111.082 34.056 111.389 34.6959L106.47 36.7517C106.258 35.16 107.766 33.5226 109.356 33.5226H109.356ZM102.802 42.0812H100.383V25.8906H102.802V42.0812ZM132.82 42.0812H135.239V25.8906H132.82V42.0812ZM122.41 42.0812H119.99V36.2061V25.8906H122.41H125.842C128.679 25.8906 131 28.2116 131 31.0485C131 33.8852 128.679 36.2061 125.842 36.2061H122.41V42.0812ZM122.41 33.7856V28.3088H125.843C127.344 28.3088 128.581 29.5457 128.581 31.0473C128.581 32.5487 127.344 33.7856 125.843 33.7856H122.41ZM153.101 47.3499L160.107 31.4097H157.464L154.294 38.623L151.124 31.4097H148.482L152.973 41.6296L150.459 47.3499H153.101ZM145.141 42.0804H147.56V36.2573C147.939 30.2516 140.325 28.8391 137.443 33.1686L139.39 34.4749C140.799 32.012 144.819 32.5787 145.083 35.2181C143.875 34.8981 142.57 34.6661 141.377 34.7868C139.516 34.9751 137.923 36.1572 137.669 38.0932C137.533 39.1394 137.766 40.429 138.496 41.2149C139.635 42.4394 141.503 42.6044 143.039 42.186C143.903 41.9504 144.583 41.4369 145.141 40.7735V42.0804ZM142.463 40.0759C143.788 39.7153 144.831 38.7468 145.141 37.4004C144.464 37.1812 143.841 37.0042 143.127 36.9181C138.97 36.2931 139.666 40.8385 142.463 40.0759ZM69.7472 20.1244H68.6463V12.7563H69.7472V20.1244ZM62.4804 20.1244H63.5815V13.8572H65.3887V12.7563H60.6731V13.8572H62.4804V20.1244ZM59.5123 20.1244H55.2898V12.7563H59.5123V13.8572H56.3909V15.8899H59.1365V16.9908H56.3909V19.0233H59.5123V20.1244ZM73.5517 13.8572H75.359V12.7563H70.6436V13.8572H72.4508V20.1244H73.5517V13.8572ZM78.1919 16.3772C78.1919 14.3628 79.9013 12.498 82.1109 12.498C84.3205 12.498 86.0299 14.3628 86.0299 16.3772C86.0299 18.3353 84.4474 20.2447 82.1109 20.2749C79.7744 20.2447 78.1919 18.3353 78.1919 16.3772ZM82.1109 19.2156C80.6338 19.1975 79.3524 18.0297 79.3524 16.3975C79.3524 14.8083 80.5731 13.5814 82.1109 13.5615C83.6488 13.5814 84.8694 14.8083 84.8694 16.3975C84.8694 18.0297 83.5879 19.1975 82.1109 19.2156ZM88.2307 20.1252H87.1296V12.7571H88.2307L91.7649 18.1213V12.7571H92.866V20.1252H91.7668L88.2307 14.7582V20.1252ZM16.4849 21.6901L28.9247 34.1113L16.5446 46.6414C16.1833 46.4118 15.9897 45.9147 15.9864 45.2726L15.8742 23.0335C15.8707 22.3303 16.1265 21.9014 16.4849 21.6901ZM17.9 21.7058L33.0269 29.9586L29.4393 33.5893L17.3722 21.5399C17.555 21.5639 17.7384 21.6176 17.9 21.7058ZM33.6995 37.8425L29.9575 34.1059L33.6957 30.3228L38.8437 33.131C40.1119 33.8225 39.4632 34.6876 38.8437 35.0266L33.6995 37.8425ZM17.9 46.4897C17.7857 46.5536 17.6756 46.6037 17.5701 46.6434L29.4429 34.6271L33.03 38.2088L17.9 46.4897Z" fill="#585757"/>
</svg>
