<svg width="99" height="99" viewBox="0 0 99 99" fill="none" xmlns="http://www.w3.org/2000/svg">
<rect x="0.547607" y="0.142578" width="98.2643" height="98.2643" rx="32" fill="#5D50C6"/>
<path d="M29.2412 60.4663C30.7737 61.1516 32.2812 61.9116 33.8449 62.5096C36.2869 63.4441 38.6977 64.6339 41.2332 65.0824C48.7087 66.4093 54.0537 60.647 52.4465 53.2462C51.7329 50.1548 50.1455 47.3338 47.8736 45.1192C45.6016 42.9047 42.7408 41.3901 39.6322 40.7558C33.8075 39.6345 27.5966 43.6464 26.0392 49.7701L29.1166 50.5986C31.0416 48.7297 32.4121 46.7736 34.2996 45.7333C37.7695 43.827 41.1522 44.8362 44.0677 47.353C47.1451 50.0317 48.9641 53.3583 48.173 57.5571C47.7057 60.0489 45.27 61.6125 42.4791 60.9647C39.6883 60.3168 37.0843 59.0958 34.3806 58.1551C32.5117 57.501 30.7301 56.5541 28.8363 56.2862C25.8959 55.9 24.027 58.1551 24.5503 61.0643C24.6808 61.9454 24.9835 62.7921 25.4411 63.5562C31.4652 72.6452 39.6509 78.4076 50.833 78.339C65.5972 78.2581 75.8013 66.9264 74.9416 52.2058C74.3809 42.525 69.8894 29.4865 64.8808 23.207L62.1335 24.9202C64.588 31.1498 67.1857 36.9495 69.1854 42.986C70.9645 48.048 71.3285 53.4996 70.2382 58.7532C69.6415 61.4015 68.5124 63.9007 66.9194 66.0989C65.3265 68.2971 63.303 70.1482 60.9721 71.5398C58.6412 72.9313 56.0515 73.8342 53.3607 74.1934C50.6699 74.5527 47.9341 74.3608 45.3198 73.6295C39.4123 72.0135 34.1936 68.5139 30.456 63.6621C29.84 62.7689 29.2863 61.8344 28.7989 60.865L29.2412 60.4663Z" fill="white" stroke="white" stroke-width="1.26477" stroke-miterlimit="10"/>
<path d="M30.1694 25.1455C30.2255 26.3914 30.2816 27.6373 30.3439 28.9518C43.7749 29.5747 52.0665 36.1719 55.2249 49.36L58.8942 48.8055C58.4892 37.3181 46.0362 23.7563 30.1694 25.1455Z" fill="white" stroke="white" stroke-width="1.26477" stroke-miterlimit="10"/>
<path d="M46.9768 17.457C46.1732 18.6344 45.4568 19.6935 44.6407 20.8833C54.1783 27.6424 60.2148 36.5819 62.6443 48.1129L66.8181 47.6146C64.1643 34.8003 57.6606 24.9014 46.9768 17.457Z" fill="white" stroke="white" stroke-width="1.26477" stroke-miterlimit="10"/>
</svg>
