<svg width="256" height="50" viewBox="0 0 256 50" fill="none" xmlns="http://www.w3.org/2000/svg">
<g clip-path="url(#clip0_2804_28989)">
<path d="M15.8922 9.26408C17.4995 9.27222 19.0983 9.49268 20.646 9.91955C22.127 10.2996 23.5373 10.9087 24.824 11.7241L22.4143 17.1297C21.221 16.7092 20.0046 16.3553 18.7708 16.0697C17.8418 15.8896 16.8966 15.8028 15.9498 15.8107C14.6898 15.824 13.4653 16.2228 12.4461 16.9517C11.2716 17.7832 10.3342 18.8979 9.7238 20.1886C9.00333 21.653 8.64273 23.2635 8.67106 24.8902C8.636 26.5203 9.00584 28.1342 9.74847 29.5918C10.3845 30.8587 11.3635 31.9284 12.5777 32.6831C13.6766 33.38 14.955 33.7534 16.2623 33.7593C18.2963 33.7521 20.2886 33.192 22.0195 32.1409L25.1366 38.1049C23.8076 38.8466 22.3749 39.3919 20.8845 39.7233C19.2996 40.1104 17.6732 40.3087 16.0402 40.3141C13.1174 40.3846 10.2253 39.7129 7.64299 38.3638C5.32157 37.1163 3.42072 35.2291 2.17368 32.9339C0.883859 30.4497 0.247623 27.6869 0.32316 24.8983C0.269894 22.0756 0.961318 19.2874 2.32995 16.8061C3.62065 14.4795 5.54628 12.554 7.88973 11.2467C10.3317 9.90031 13.0933 9.21613 15.8922 9.26408Z" fill="#6750A4"/>
<path d="M51.2084 25.9645V39.7213H43.0908V26.7009C43.0908 25.0015 42.3177 24.1518 40.7715 24.1518C40.089 24.1901 39.4145 24.3152 38.7647 24.524C37.9548 24.7525 37.1632 25.0392 36.396 25.3818V39.7213H28.2866V9.17303L36.4125 8.6875V19.5392C38.5574 18.4003 40.9425 17.7685 43.3786 17.6942C45.994 17.6942 47.957 18.4495 49.2674 19.96C50.6368 21.6617 51.3271 23.7971 51.2084 25.9645Z" fill="#6750A4"/>
<path d="M63.981 11.1951C63.9849 11.7622 63.8692 12.324 63.6413 12.8449C63.4134 13.3658 63.0782 13.8346 62.6569 14.2216C62.2513 14.6299 61.7662 14.9535 61.2306 15.1732C60.6951 15.3928 60.12 15.5041 59.5398 15.5002C58.3833 15.4876 57.2778 15.0299 56.4601 14.2253C55.6423 13.4207 55.1772 12.333 55.1643 11.1951C55.1553 10.6194 55.2651 10.0479 55.4871 9.51521C55.709 8.98248 56.0385 8.4996 56.4556 8.09577C56.8506 7.68168 57.3287 7.35279 57.8596 7.12991C58.3905 6.90704 58.9626 6.79504 59.5398 6.80101C60.7209 6.81156 61.8506 7.2779 62.6858 8.09968C63.521 8.92145 63.995 10.033 64.0057 11.1951H63.981ZM63.6192 18.3972V39.7203H55.4933V18.3972H63.6192Z" fill="#6750A4"/>
<path d="M76.0795 40.1831C74.4745 40.1447 72.8782 39.9385 71.3175 39.5681C69.6989 39.277 68.1673 38.6327 66.8351 37.6826L69.1133 32.6331C70.1208 33.0896 71.1737 33.4422 72.2551 33.6851C73.2414 33.9414 74.2539 34.0879 75.2735 34.122C75.7344 34.1351 76.1924 34.0467 76.614 33.8631C76.7626 33.8089 76.8921 33.7136 76.9869 33.5887C77.0818 33.4638 77.1379 33.3146 77.1487 33.1591C77.1487 32.981 76.943 32.7706 76.5483 32.5198C76.0626 32.2327 75.5434 32.0044 75.002 31.84C73.0024 31.192 71.1161 30.2449 69.4094 29.032C68.7245 28.5469 68.1698 27.9052 67.793 27.1623C67.4162 26.4194 67.2286 25.5975 67.2463 24.7674C67.2038 23.7572 67.4141 22.7523 67.8586 21.8408C68.3032 20.9293 68.9684 20.1392 69.7959 19.5398C71.4902 18.2828 73.8396 17.6543 76.8443 17.6543C78.265 17.6716 79.6796 17.8399 81.0635 18.156C82.5013 18.4497 83.8534 19.0582 85.0195 19.9363L82.7413 24.9859C81.8519 24.6075 80.9333 24.299 79.9943 24.0634C79.1569 23.8433 78.295 23.7264 77.4283 23.7154C76.868 23.6944 76.309 23.7824 75.7834 23.9743C75.3722 24.1524 75.1583 24.3871 75.1583 24.6784C75.1583 24.9697 75.3722 25.0587 75.7834 25.2934C76.3097 25.5748 76.8602 25.8104 77.4283 25.9974C79.3971 26.6208 81.2459 27.5644 82.8976 28.7892C83.5726 29.2846 84.1174 29.9316 84.4865 30.6763C84.8556 31.421 85.0384 32.2417 85.0195 33.07C85.0732 34.0586 84.8957 35.046 84.5007 35.9565C84.1058 36.8669 83.5039 37.6762 82.7413 38.3219C81.302 39.5681 79.0485 40.1831 76.0795 40.1831Z" fill="#6750A4"/>
<path d="M110.943 28.7652C110.943 32.4876 109.909 35.3199 107.842 37.262C105.775 39.2042 102.984 40.1779 99.4697 40.1833C98.5007 40.1901 97.5369 40.0425 96.6158 39.7463V49.805H88.49V18.4394H92.5529L93.803 19.6695C94.6915 19.0564 95.6597 18.5638 96.6816 18.2048C97.6875 17.8396 98.7513 17.6533 99.8234 17.6545C102.78 17.52 105.672 18.5277 107.883 20.4625C109.923 22.3399 110.943 25.1075 110.943 28.7652ZM102.554 28.7652C102.639 27.4517 102.278 26.1476 101.526 25.0589C101.175 24.6267 100.723 24.2836 100.21 24.0583C99.6958 23.8331 99.1348 23.7322 98.5733 23.7641C97.8697 23.7897 97.1892 24.0176 96.6158 24.4196V33.4668C97.3402 33.8131 98.1303 34.0061 98.9351 34.0332C99.4517 34.0327 99.9598 33.9041 100.413 33.6595C100.865 33.4148 101.248 33.0619 101.526 32.6333C102.266 31.4943 102.626 30.1558 102.554 28.8056V28.7652Z" fill="#6750A4"/>
<path d="M124.341 33.9919C125.024 33.9564 125.699 33.8312 126.348 33.6197C127.157 33.3899 127.949 33.1032 128.717 32.7619V18.4386H136.851V39.7213H132.927L130.608 37.5283C127.45 39.465 124.503 40.4307 121.767 40.4253C119.146 40.4253 117.18 39.67 115.87 38.1594C114.494 36.4633 113.794 34.3308 113.904 32.1631V18.4062H122.046V31.4429C122.021 32.0906 122.208 32.7292 122.581 33.2636C122.793 33.5155 123.064 33.7132 123.37 33.84C123.677 33.9668 124.01 34.0189 124.341 33.9919Z" fill="#6750A4"/>
<path d="M162.421 39.7202H158.308L157.099 38.1826C156.208 38.7936 155.241 39.2886 154.221 39.6554C153.211 40.0148 152.145 40.1983 151.071 40.1976C148.114 40.3338 145.221 39.3259 143.011 37.3896C140.971 35.5122 139.951 32.7447 139.951 29.087C139.951 25.3726 140.988 22.5322 143.06 20.5901C145.133 18.6479 147.913 17.6688 151.425 17.6688C152.396 17.6623 153.363 17.8098 154.287 18.1058V9.20429L162.412 8.71875L162.421 39.7202ZM152.329 34.0556C153.037 34.0385 153.722 33.8098 154.295 33.4001V24.3449C153.571 23.9985 152.78 23.8056 151.976 23.7784C151.459 23.7797 150.951 23.9086 150.499 24.1532C150.046 24.3978 149.663 24.7503 149.385 25.1784C148.642 26.3251 148.285 27.6728 148.365 29.0303C148.278 30.3439 148.64 31.6484 149.393 32.7366C149.739 33.1724 150.186 33.5199 150.697 33.7495C151.208 33.9791 151.768 34.0841 152.329 34.0556Z" fill="#6750A4"/>
<path d="M178.088 40.1822C174.464 40.1822 171.542 39.2246 169.321 37.3094C167.101 35.3943 165.99 32.6051 165.99 28.942C165.944 26.8142 166.514 24.7174 167.635 22.8971C168.701 21.2059 170.236 19.8498 172.06 18.9886C174.004 18.0796 176.134 17.6227 178.286 17.6533C180.487 17.6094 182.669 18.0576 184.668 18.9643C186.478 19.8147 187.988 21.1788 189.002 22.8809C190.091 24.7966 190.631 26.9668 190.565 29.1605C190.618 31.2662 190.047 33.3415 188.92 35.1326C187.838 36.7942 186.286 38.108 184.454 38.9117C182.451 39.7828 180.279 40.2162 178.088 40.1822ZM182.151 29.201C182.205 27.9273 181.854 26.6687 181.148 25.5999C180.844 25.1507 180.428 24.7856 179.94 24.5391C179.452 24.2927 178.908 24.1731 178.36 24.1919C177.805 24.1655 177.252 24.2666 176.743 24.4871C176.235 24.7076 175.786 25.0415 175.432 25.4624C174.681 26.4817 174.312 27.7256 174.387 28.9825C174.32 30.2087 174.664 31.4228 175.366 32.4379C175.693 32.8604 176.121 33.1974 176.611 33.4189C177.102 33.6405 177.64 33.7399 178.179 33.7084C178.725 33.743 179.272 33.6588 179.781 33.4615C180.29 33.2643 180.748 32.959 181.123 32.5674C181.874 31.607 182.239 30.4091 182.151 29.201Z" fill="#6750A4"/>
<path d="M201.66 40.1831C200.057 40.1441 198.464 39.938 196.906 39.5681C195.286 39.2802 193.754 38.6356 192.424 37.6826L194.702 32.6331C195.709 33.0909 196.762 33.4435 197.844 33.6851C198.83 33.9424 199.842 34.089 200.862 34.122C201.32 34.1361 201.776 34.0476 202.194 33.8631C202.344 33.8101 202.476 33.7154 202.572 33.5904C202.668 33.4654 202.726 33.3156 202.737 33.1591C202.737 32.981 202.532 32.7706 202.129 32.5198C201.646 32.2326 201.129 32.0044 200.591 31.84C198.602 31.1889 196.727 30.2419 195.031 29.032C194.346 28.5469 193.791 27.9052 193.414 27.1623C193.038 26.4194 192.85 25.5975 192.868 24.7674C192.826 23.7582 193.035 22.7541 193.478 21.8429C193.921 20.9317 194.584 20.141 195.409 19.5398C197.112 18.2855 199.456 17.6543 202.466 17.6543C203.886 17.6716 205.301 17.8399 206.685 18.156C208.12 18.4498 209.47 19.0583 210.633 19.9363L208.404 24.9859C207.514 24.6075 206.596 24.299 205.657 24.0634C204.819 23.8433 203.957 23.7264 203.091 23.7154C202.531 23.6944 201.972 23.7824 201.446 23.9743C201.026 24.1524 200.821 24.3871 200.821 24.6784C200.821 24.9697 201.026 25.0587 201.446 25.2934C201.972 25.5748 202.523 25.8104 203.091 25.9974C205.059 26.6226 206.907 27.5661 208.56 28.7892C209.235 29.2846 209.78 29.9316 210.149 30.6763C210.518 31.421 210.701 32.2417 210.682 33.07C210.736 34.0586 210.558 35.046 210.163 35.9565C209.768 36.8669 209.166 37.6762 208.404 38.3219C206.882 39.5681 204.637 40.1831 201.66 40.1831Z" fill="#6750A4"/>
<path d="M222.995 30.2141C224.08 30.6916 225.15 31.2257 226.285 31.6465C227.978 32.4068 229.74 33.0082 231.548 33.443C236.869 34.3736 240.669 30.3355 239.534 25.1565C239.027 22.991 237.898 21.0148 236.28 19.4637C234.663 17.9126 232.626 16.8521 230.413 16.4088C228.291 16.0929 226.126 16.565 224.338 17.7332C222.551 18.9013 221.268 20.682 220.741 22.7288L222.937 23.3115C224.302 22.0086 225.281 20.6248 226.622 19.9046C229.089 18.5613 231.556 19.2734 233.58 21.0375C235.767 22.9068 237.059 25.2374 236.499 28.183C236.417 28.6159 236.243 29.0268 235.988 29.3891C235.733 29.7514 235.404 30.057 235.022 30.2859C234.64 30.5149 234.212 30.6621 233.768 30.7181C233.324 30.774 232.873 30.7374 232.445 30.6107C230.492 30.0534 228.571 29.3971 226.688 28.6443C225.421 28.0777 224.098 27.6411 222.74 27.3414C220.651 27.0663 219.318 28.6362 219.697 30.6916C219.785 31.3144 219.997 31.9139 220.322 32.4557C224.615 38.8243 230.446 42.8543 238.416 42.8138C248.927 42.7491 256.189 34.8186 255.58 24.501C255.177 17.7197 251.978 8.59164 248.409 4.18945L246.459 5.3952C248.203 9.74074 250.053 13.8111 251.476 18.0272C252.746 21.5729 253.005 25.393 252.225 29.0731C251.8 30.9282 250.996 32.6789 249.862 34.2187C248.728 35.7585 247.287 37.0552 245.628 38.0302C243.968 39.0051 242.125 39.6378 240.209 39.8897C238.293 40.1417 236.346 40.0078 234.484 39.496C230.284 38.3643 226.571 35.9187 223.908 32.5285C223.468 31.9 223.073 31.243 222.723 30.5621L222.995 30.2141Z" fill="#6750A4"/>
<path d="M223.652 5.46727C223.652 6.34123 223.734 7.2152 223.775 8.13772C233.341 8.55851 239.238 13.1873 241.491 22.4286L244.098 22.0402C243.81 13.9884 234.944 4.4962 223.652 5.46727Z" fill="#6750A4"/>
<path d="M235.619 0.0683594L233.974 2.49604C240.619 6.95772 245.22 13.8061 246.788 21.5695L249.757 21.2215C248.943 16.9495 247.274 12.8794 244.847 9.24787C242.42 5.61637 239.283 2.49602 235.619 0.0683594Z" fill="#6750A4"/>
</g>
<defs>
<clipPath id="clip0_2804_28989">
<rect width="255.265" height="49.7269" fill="white" transform="translate(0.315063 0.0839844)"/>
</clipPath>
</defs>
</svg>
