<svg width="202" height="64" viewBox="0 0 202 64" fill="none" xmlns="http://www.w3.org/2000/svg">
<path d="M0.357666 58.6V15.0403H18.6806C23.2599 14.8578 27.7754 16.1615 31.5527 18.7568C34.927 21.2345 36.6142 24.951 36.6142 29.9063C36.6616 32.2515 36.1223 34.5713 35.045 36.655C34.0168 38.5798 32.5295 40.2211 30.715 41.4333L40.3307 58.6H26.8097L19.7307 44.8903H11.9791V58.6H0.357666ZM24.568 29.9063C24.6259 29.1204 24.51 28.3313 24.2286 27.5952C23.9472 26.8591 23.5072 26.194 22.9398 25.6471C21.6222 24.6079 19.9656 24.0949 18.2913 24.2076H12.0145V35.7347H18.4211C19.2301 35.7656 20.0374 35.6367 20.7966 35.3553C21.5557 35.0738 22.252 34.6455 22.8455 34.0947C23.4118 33.5576 23.858 32.9067 24.1549 32.1848C24.4517 31.4629 24.5926 30.6864 24.568 29.9063Z" fill="#6750A4"/>
<path d="M58.9251 26.4475C61.7934 26.3522 64.6259 27.1076 67.066 28.6184C69.2609 30.0445 71.0042 32.0661 72.0921 34.4468C73.2513 37.0021 73.8315 39.7821 73.7911 42.5877V45.9739H54.9136C55.3016 47.2582 56.1393 48.3598 57.2733 49.0769C58.6794 49.8875 60.2889 50.2766 61.9101 50.1977C64.8941 50.2253 67.8393 49.5204 70.4875 48.1448L73.7557 56.0261C72.0712 57.1447 70.1956 57.9446 68.2222 58.3858C65.8079 59.0224 63.3214 59.3436 60.8246 59.3415C57.5172 59.4065 54.233 58.7754 51.1853 57.4891C48.4914 56.3364 46.2031 54.4054 44.6136 51.9439C42.9841 49.3035 42.1638 46.2436 42.2539 43.1423C42.1834 40.055 42.9368 37.0046 44.4366 34.3052C45.8326 31.8355 47.9145 29.8234 50.4302 28.5122C53.0481 27.1337 55.9665 26.4244 58.9251 26.4475ZM58.6065 35.7918C58.0639 35.7992 57.5291 35.9231 57.0386 36.1552C56.548 36.3873 56.113 36.722 55.7631 37.1369C55.3654 37.5416 55.0554 38.0238 54.8524 38.5537C54.6494 39.0835 54.5578 39.6494 54.5833 40.2162H62.6534C62.6483 39.1283 62.2878 38.0718 61.6269 37.2077C61.282 36.7467 60.8299 36.3768 60.3097 36.1301C59.7895 35.8834 59.2171 35.7673 58.6419 35.7918H58.6065Z" fill="#6750A4"/>
<path d="M93.3525 26.4491C97.8005 26.4491 101.34 27.4873 103.971 29.5875L100.703 37.5868C99.6873 37.0366 98.6154 36.5975 97.5056 36.2772C96.5221 36.0304 95.5109 35.9115 94.497 35.9232C93.686 35.9265 92.8854 36.1054 92.1502 36.4475C91.4149 36.7897 90.7625 37.287 90.2378 37.9054C88.981 39.3349 88.3257 41.1951 88.409 43.0967C88.3594 43.9972 88.4927 44.8985 88.801 45.7461C89.1092 46.5937 89.5859 47.3701 90.2024 48.0284C90.7592 48.6029 91.427 49.0582 92.1653 49.3665C92.9036 49.6748 93.6969 49.8297 94.497 49.8218C95.5106 49.8275 96.521 49.7087 97.5056 49.4678C98.6204 49.1621 99.694 48.7224 100.703 48.1582L103.971 56.1575C101.328 58.2576 97.7887 59.2959 93.3525 59.2959C88.232 59.2959 84.1223 57.8761 81.0232 55.0367C77.9242 52.1972 76.3785 48.2172 76.3864 43.0967C76.3078 39.9904 77.0484 36.9181 78.5337 34.1889C79.9138 31.7199 81.9956 29.716 84.5155 28.4312C87.2585 27.0682 90.2902 26.3881 93.3525 26.4491Z" fill="#6750A4"/>
<path d="M123.002 59.2963C117.795 59.2963 113.603 57.9001 110.425 55.1078C107.247 52.3155 105.674 48.249 105.706 42.9083C105.634 39.8053 106.453 36.7467 108.065 34.0949C109.593 31.6321 111.791 29.6554 114.401 28.3962C117.19 27.0721 120.246 26.4061 123.333 26.4495C126.494 26.3865 129.628 27.0399 132.5 28.3608C135.093 29.6008 137.255 31.59 138.706 34.0713C140.273 36.8622 141.048 40.0278 140.948 43.2268C141.024 46.2969 140.204 49.3227 138.588 51.9341C137.039 54.3594 134.811 56.2756 132.181 57.4439C129.293 58.7207 126.16 59.3528 123.002 59.2963ZM128.843 43.2268C128.921 41.3678 128.414 39.5312 127.391 37.9765C126.956 37.3208 126.36 36.7878 125.659 36.4284C124.959 36.0689 124.178 35.8952 123.392 35.9236C122.597 35.8814 121.804 36.0271 121.076 36.349C120.348 36.6708 119.707 37.1597 119.203 37.776C118.116 39.2579 117.582 41.0736 117.693 42.9083C117.594 44.7 118.088 46.4744 119.097 47.958C119.565 48.5762 120.178 49.0697 120.881 49.3948C121.585 49.72 122.358 49.8668 123.132 49.8222C123.916 49.8688 124.7 49.7429 125.43 49.4534C126.16 49.1639 126.817 48.7179 127.356 48.1468C128.434 46.7426 128.963 44.9931 128.843 43.2268Z" fill="#6750A4"/>
<path d="M154.834 44.7586C156.392 45.4547 157.937 46.2216 159.554 46.8352C161.982 47.9477 164.511 48.8286 167.105 49.4662C174.738 50.823 180.189 44.9356 178.561 37.3728C177.835 34.2149 176.215 31.3329 173.895 29.0712C171.574 26.8095 168.652 25.2637 165.477 24.6187C159.577 23.4389 153.183 27.5801 151.59 33.8333L154.74 34.6828C156.699 32.7832 158.103 30.7657 160.026 29.7038C163.565 27.7571 167.105 28.7954 170.007 31.3556C173.157 34.0928 175.01 37.4908 174.207 41.7854C174.08 42.4102 173.824 43.0016 173.456 43.5217C173.087 44.0418 172.614 44.4792 172.066 44.8057C171.518 45.1323 170.909 45.3409 170.276 45.4181C169.643 45.4953 169.001 45.4394 168.391 45.2541C165.587 44.4519 162.83 43.4948 160.132 42.3871C158.313 41.568 156.415 40.9355 154.469 40.4994C151.472 40.0982 149.572 42.3871 150.103 45.3721C150.227 46.2864 150.536 47.1657 151.012 47.956C157.159 57.2413 165.524 63.117 176.968 63.058C192.047 62.9636 202.465 51.4011 201.592 36.3582C201.013 26.4711 196.424 13.1625 191.315 6.74414L188.507 8.49032C191.02 14.8379 193.663 20.7725 195.704 26.9194C197.532 32.0878 197.903 37.6591 196.778 43.0243C196.168 45.7289 195.015 48.2814 193.388 50.5264C191.761 52.7714 189.695 54.6621 187.314 56.0835C184.934 57.5049 182.289 58.4273 179.541 58.7947C176.793 59.1621 173.999 58.9668 171.329 58.2206C165.3 56.5706 159.973 53.0002 156.156 48.0504C155.523 47.1422 154.959 46.1877 154.469 45.1952L154.834 44.7586Z" fill="#6750A4"/>
<path d="M155.779 8.67807C155.838 9.9523 155.897 11.2265 155.956 12.5598C169.677 13.1851 178.137 19.9338 181.369 33.4076L185.168 32.8058C184.708 21.1018 171.99 7.25046 155.779 8.67807Z" fill="#6750A4"/>
<path d="M172.945 0.820312L170.585 4.35984C180.117 10.8649 186.718 20.8497 188.967 32.1687L193.226 31.6613C192.061 25.4322 189.668 19.4972 186.186 14.2023C182.704 8.90733 178.203 4.35835 172.945 0.820312Z" fill="#6750A4"/>
</svg>
