<svg width="166" height="198" viewBox="0 0 166 198" fill="none" xmlns="http://www.w3.org/2000/svg">
<path d="M64.0192 161.894C60.7364 158.514 55.9791 156.575 50.9672 156.575L50.7739 156.575C47.4726 156.577 44.2303 155.702 41.3785 154.042L41.0818 153.869L41.3208 153.623C42.6148 152.287 43.6952 150.759 44.5243 149.095C43.9355 149.643 43.2332 150.055 42.4671 150.302C41.701 150.549 40.8898 150.625 40.0911 150.525C39.2478 150.424 38.4382 150.135 37.7231 149.677C37.008 149.22 36.4058 148.607 35.9619 147.884C34.2102 145.046 32.1221 141.019 32.1221 137.951C32.1248 135.359 32.6685 132.795 33.7186 130.423C34.7687 128.052 36.3021 125.925 38.221 124.178C39.4359 123.084 40.4063 121.747 41.0689 120.253C41.7315 118.76 42.0714 117.144 42.0666 115.511L42.0656 115.278C42.0653 113.128 42.3285 110.986 42.8493 108.899L42.9022 108.688L43.1193 108.696C44.5194 108.743 45.9202 108.626 47.2928 108.347C46.0053 108.189 44.7457 107.855 43.5499 107.353L43.3163 107.258L43.3956 107.019C48.8597 103.641 61.1938 105.391 68.3529 89.0358C74.158 75.7743 94.6401 100.808 94.6401 115.278C94.6401 116.755 93.1767 118.706 94.2722 119.682C106.115 130.231 97.9437 137.006 95.3674 143.822C94.7561 145.44 96.0815 147.215 96.0815 148.965C96.0815 149.262 96.0739 149.568 96.0589 149.876L96.0361 150.348L95.6412 150.086C94.8601 149.575 94.136 148.982 93.4814 148.317C94.1605 149.878 94.4806 151.57 94.418 153.271C94.3555 154.971 93.9119 156.636 93.1199 158.142C91.8788 160.481 90.6781 162.156 89.5512 163.119C85.9412 166.204 81.2875 167.795 76.5417 167.567C71.7959 167.339 67.3164 165.31 64.0192 161.894Z" fill="#FFD233"/>
<path d="M83.8467 197.081C83.9274 197.081 84.0053 197.052 84.0662 196.999C84.1272 196.946 84.167 196.873 84.1783 196.793C84.1926 196.693 85.5885 186.641 84.3348 173.281C83.177 160.944 79.459 143.173 68.3212 128.578C68.2946 128.543 68.2612 128.513 68.2231 128.491C68.185 128.469 68.143 128.454 68.0993 128.448C68.0556 128.442 68.0112 128.445 67.9686 128.456C67.9259 128.468 67.8859 128.487 67.8509 128.514C67.8158 128.541 67.7864 128.574 67.7642 128.612C67.742 128.65 67.7276 128.692 67.7217 128.736C67.7159 128.779 67.7187 128.824 67.73 128.866C67.7413 128.909 67.7609 128.949 67.7876 128.984C78.8292 143.453 82.5173 161.093 83.6669 173.344C84.9132 186.626 83.5283 196.6 83.5142 196.699C83.5074 196.746 83.511 196.795 83.5246 196.841C83.5382 196.887 83.5616 196.929 83.5931 196.966C83.6247 197.002 83.6636 197.031 83.7074 197.051C83.7511 197.071 83.7986 197.081 83.8467 197.081V197.081Z" fill="#3F3D56"/>
<path d="M74.758 149.165C74.8289 149.165 74.8979 149.142 74.9553 149.101C75.0126 149.059 75.0553 149.001 75.0773 148.933C75.0992 148.866 75.0992 148.793 75.0773 148.726C75.0555 148.659 75.0128 148.6 74.9555 148.559C71.7819 146.414 68.3535 144.671 64.7492 143.371C59.1182 141.313 50.5555 139.446 41.7403 142.248C41.6982 142.261 41.6592 142.282 41.6254 142.311C41.5917 142.339 41.5638 142.374 41.5435 142.413C41.5232 142.452 41.5108 142.495 41.5071 142.539C41.5033 142.583 41.5083 142.627 41.5216 142.669C41.535 142.711 41.5566 142.75 41.585 142.783C41.6135 142.817 41.6483 142.845 41.6875 142.865C41.7267 142.885 41.7695 142.897 41.8135 142.901C41.8575 142.905 41.9017 142.899 41.9437 142.886C50.5783 140.142 58.9858 141.977 64.5186 144C68.0649 145.278 71.4383 146.991 74.5611 149.101C74.6183 149.142 74.6873 149.165 74.758 149.165Z" fill="#3F3D56"/>
<path d="M90.1096 110.986C90.1148 110.916 90.0975 110.845 90.0601 110.785C90.0227 110.725 89.9672 110.678 89.9016 110.652C89.836 110.625 89.7636 110.62 89.6948 110.637C89.626 110.654 89.5643 110.692 89.5187 110.746C87.1475 113.752 85.1599 117.041 83.6016 120.537C81.1399 125.996 78.6592 134.39 80.8226 143.371C80.8329 143.413 80.8515 143.454 80.8774 143.489C80.9033 143.525 80.9359 143.555 80.9735 143.578C81.0111 143.601 81.0529 143.617 81.0964 143.623C81.1399 143.63 81.1844 143.629 81.2273 143.618C81.2701 143.608 81.3105 143.589 81.3462 143.563C81.3818 143.538 81.412 143.505 81.435 143.467C81.458 143.43 81.4734 143.388 81.4802 143.345C81.487 143.301 81.4852 143.257 81.4748 143.214C79.3559 134.417 81.7946 126.176 84.2134 120.812C85.7453 117.372 87.6997 114.136 90.0315 111.178C90.0772 111.124 90.1046 111.057 90.1096 110.986Z" fill="#3F3D56"/>
<path d="M154.81 196.727H128.107L127.992 196.519C127.651 195.9 127.321 195.245 127.013 194.572C124.263 188.692 123.1 181.968 122.074 176.035L121.302 171.563C121.208 171.021 121.279 170.464 121.504 169.962C121.73 169.461 122.1 169.038 122.567 168.748C123.035 168.458 123.579 168.314 124.129 168.334C124.679 168.354 125.21 168.538 125.655 168.861C129.713 171.81 133.773 174.755 137.834 177.698C139.372 178.815 141.128 180.108 142.81 181.506C142.972 180.719 143.142 179.929 143.312 179.151C143.429 178.614 143.704 178.123 144.102 177.743C144.499 177.363 145.002 177.109 145.544 177.016C146.087 176.922 146.646 176.992 147.148 177.217C147.651 177.442 148.075 177.812 148.366 178.279L151.49 183.291C153.768 186.951 155.78 190.557 155.37 194.447C155.372 194.495 155.368 194.542 155.359 194.589C155.277 195.228 155.125 195.856 154.906 196.461L154.81 196.727Z" fill="#F0F0F0"/>
<path d="M142.369 91.906L137.216 72.8604C136.995 72.0541 136.466 71.3668 135.742 70.9468C135.018 70.5268 134.158 70.4078 133.347 70.6154C132.928 70.7229 132.535 70.9145 132.192 71.1785C131.849 71.4426 131.563 71.7737 131.353 72.1515C131.142 72.5293 131.011 72.946 130.967 73.3762C130.923 73.8063 130.967 74.2409 131.097 74.6535L137.057 94.2735L140.176 106.348C139.722 106.694 139.385 107.172 139.212 107.715C139.039 108.259 139.038 108.843 139.209 109.388C139.38 109.932 139.715 110.411 140.168 110.759C140.62 111.107 141.17 111.307 141.741 111.332C142.311 111.358 142.876 111.207 143.359 110.901C143.841 110.595 144.217 110.147 144.436 109.62C144.654 109.093 144.705 108.512 144.582 107.955C144.458 107.398 144.165 106.892 143.744 106.507L142.369 91.906Z" fill="#FFCBA5"/>
<path d="M99.0042 87.8029L114.662 75.7706C115.324 75.2588 115.758 74.5078 115.87 73.6795C115.982 72.8512 115.764 72.012 115.262 71.3432C115.002 70.9971 114.675 70.7075 114.299 70.492C113.924 70.2765 113.508 70.1396 113.078 70.0897C112.648 70.0397 112.212 70.0778 111.797 70.2015C111.382 70.3252 110.997 70.532 110.665 70.8093L94.7834 83.8058L84.8 91.2968C84.3059 91.01 83.7355 90.882 83.166 90.9302C82.5966 90.9785 82.0558 91.2005 81.6172 91.5663C81.1786 91.9321 80.8634 92.4238 80.7144 92.9746C80.5654 93.5255 80.5899 94.1088 80.7845 94.6453C80.9791 95.1819 81.3343 95.6455 81.8021 95.9734C82.2698 96.3013 82.8272 96.4774 83.3987 96.478C83.9701 96.4785 84.5279 96.3033 84.9962 95.9763C85.4645 95.6493 85.8206 95.1862 86.0162 94.6501L99.0042 87.8029Z" fill="#FFCBA5"/>
<path d="M111.766 90.5699L111.076 105.961L132.748 101.258C130.903 95.0738 129.649 94.0189 131.035 89.7148L111.766 90.5699Z" fill="#FFCBA5"/>
<path d="M125.091 62.3535H117.87L114.769 67.652L113.292 67.5706C112.569 67.5307 111.846 67.6385 111.166 67.8872C110.487 68.1359 109.865 68.5204 109.339 69.0171C108.814 69.5139 108.395 70.1125 108.109 70.7763C107.822 71.4401 107.675 72.1552 107.675 72.8779L109.495 75.6955C109.495 75.6955 106.239 81.3614 110.93 84.1489C110.93 84.1489 110.093 89.4007 110.93 89.3442C111.766 89.2878 113.693 88.2189 111.766 89.2878C109.839 90.3566 109.983 90.5002 110.232 90.7491L110.482 90.9979L130.742 94.3948C130.742 94.3948 131.335 90.4731 131.399 89.7735C131.463 89.074 131.035 90.7842 131.463 89.074C131.891 87.3638 132.533 88.0051 131.891 87.3638C131.249 86.7225 136.053 78.7774 134.079 75.6955L137.243 72.6136C137.243 69.6574 132.488 67.2609 129.527 67.2609H129.148L125.091 62.3535Z" fill="#6A00BF"/>
<path d="M107.693 190.793H104.77L103.38 179.537L107.693 179.537L107.693 190.793Z" fill="#A0616A"/>
<path d="M98.8718 195.098C98.8732 195.425 99.0037 195.738 99.235 195.969C99.4663 196.2 99.7797 196.331 100.107 196.334H105.609L105.779 195.981L106.558 194.377L106.859 195.981L106.926 196.334H109.001L108.971 195.978L108.418 189.352L107.694 189.308L104.566 189.123L103.798 189.076V191.055C103.215 191.674 98.6396 194.015 98.8718 195.098Z" fill="#2F2E41"/>
<path d="M151.13 183.148L148.672 184.727L141.403 176.012L145.031 173.682L151.13 183.148Z" fill="#A0616A"/>
<path d="M146.044 191.536C146.222 191.81 146.502 192.003 146.821 192.072C147.141 192.142 147.476 192.083 147.752 191.908L152.379 188.935L152.332 188.547L152.117 186.778L153.24 187.963L153.487 188.224L155.232 187.103L155.015 186.82L150.959 181.547L150.326 181.901L147.596 183.435L146.924 183.81L147.996 185.474C147.841 186.31 145.262 190.75 146.044 191.536Z" fill="#2F2E41"/>
<path d="M164.764 196.932L74.2638 197.02C74.1735 197.02 74.087 196.984 74.0233 196.92C73.9596 196.856 73.9238 196.769 73.9238 196.679C73.9238 196.589 73.9596 196.503 74.0233 196.439C74.087 196.375 74.1735 196.339 74.2638 196.338L164.764 196.25C164.854 196.25 164.941 196.287 165.005 196.351C165.068 196.414 165.104 196.501 165.104 196.591C165.104 196.681 165.068 196.768 165.005 196.832C164.941 196.896 164.854 196.932 164.764 196.932Z" fill="#CACACA"/>
<path d="M132.408 99.5195C132.408 99.5195 118.555 106.836 111.228 101.844C111.228 101.844 109.625 109.595 108.983 110.237C108.341 110.878 107.317 111.157 108.043 111.873C108.769 112.588 109.173 113.554 107.793 114.781C106.414 116.008 105.038 115.619 106.368 116.883C107.698 118.146 102.346 149.143 102.346 149.143C102.346 149.143 103.202 177.969 102.346 178.84C101.49 179.712 100.345 179.907 101.453 180.985C102.56 182.064 102.56 181.227 102.56 182.714V184.201L103.067 185.679H110.018C110.018 185.679 111.696 183.733 110.018 182.043C108.341 180.353 110.529 179.891 111.04 178.305C111.552 176.719 112.408 178.43 111.552 176.719C110.696 175.009 110.284 175.335 110.276 174.21C110.267 173.085 122.899 129.048 122.899 129.048L124.429 153.422L142.831 180.116L148.248 176.059C148.248 176.059 144.304 170.516 145.226 169.754C146.149 168.992 142.508 168.036 143.656 167.176C144.804 166.317 142.041 165.45 143.082 164.311C144.124 163.171 141.647 160.299 140.213 160.299C138.778 160.299 136.764 155.512 136.764 155.512L139.77 117.69L132.408 99.5195Z" fill="#2F2E41"/>
<path d="M117.725 46.7956C117.627 46.9241 116.846 46.8549 115.907 46.7179C114.05 46.4472 113.797 46.7689 112.409 48.0298C110.397 49.8563 111.541 60.9968 110.553 63.4106L110.233 63.6455C110.867 63.5247 111.489 63.3509 112.093 63.126C112.434 62.051 112.776 60.9726 113.12 59.8985C113.446 60.7342 113.65 61.6118 113.728 62.505C114.206 62.3169 114.681 61.8567 116.678 61.2395C117.684 60.5582 124.961 59.8732 125.896 59.5734C128.271 51.5076 124.445 48.2458 117.725 46.7956Z" fill="#2F2E41"/>
<path d="M120.182 59.2323C124.023 59.2323 127.136 56.1237 127.136 52.289C127.136 48.4543 124.023 45.3457 120.182 45.3457C116.342 45.3457 113.229 48.4543 113.229 52.289C113.229 56.1237 116.342 59.2323 120.182 59.2323Z" fill="#FFCBA5"/>
<path d="M124.56 46.1835C124.168 46.1257 123.791 45.9937 123.449 45.7944C123.279 45.6921 123.142 45.5443 123.052 45.3677C122.963 45.1912 122.925 44.993 122.943 44.796C123.028 44.3026 123.587 44.0081 124.088 44.0381C124.586 44.1098 125.06 44.3011 125.468 44.5957C125.423 44.1189 125.219 43.671 124.888 43.3239C124.558 42.9769 124.12 42.7507 123.646 42.6819C124.304 42.6465 124.988 42.6152 125.597 42.868C126.206 43.1209 126.713 43.7469 126.603 44.396C127.627 44.2644 128.636 44.9764 129.059 45.9164C129.481 46.8564 129.398 47.9604 129.06 48.9341C129.027 49.0832 128.962 49.2234 128.869 49.3452C128.777 49.467 128.66 49.5676 128.525 49.6402C128.18 49.7707 127.81 49.5518 127.511 49.3361C125.952 48.209 124.533 46.9005 123.284 45.4382" fill="#2F2E41"/>
<path d="M127.592 59.6707C127.297 59.8093 127.451 60.3249 127.222 60.5558C127.122 60.6535 127.002 60.728 126.87 60.7738C126.836 60.3435 126.736 59.921 126.573 59.5211C126.543 59.4484 126.494 59.3672 126.417 59.3736C126.327 59.3843 126.303 59.5019 126.301 59.5895C126.283 60.0243 126.186 60.4523 126.016 60.8529C126.014 60.8572 126.012 60.8636 126.01 60.8679C125.943 60.8657 125.875 60.8636 125.811 60.8615C125.314 60.8422 124.214 59.5682 123.969 60C124.83 58.4758 125.879 56.1841 126.04 54.4419C126.095 54.0772 126.068 53.7046 125.961 53.3517C125.904 53.1761 125.799 53.0203 125.656 52.9029C125.514 52.7854 125.341 52.7112 125.158 52.689C125.067 52.6849 124.977 52.7008 124.894 52.7355C124.81 52.7703 124.735 52.823 124.674 52.89C124.614 52.957 124.568 53.0366 124.542 53.1231C124.516 53.2095 124.509 53.3007 124.522 53.3902L124.398 53.3731C123.246 52.4368 124.239 50.8099 122.899 50.1665C122.445 49.9485 119.666 50.6774 119.176 50.5492C119.165 50.0335 119.06 49.5241 118.865 49.0464C118.836 48.9737 118.786 48.8924 118.709 48.8989C118.619 48.9095 118.596 49.0271 118.594 49.1147C118.575 49.5495 118.479 49.9775 118.309 50.3781C117.63 50.2819 116.938 50.3182 116.273 50.485C115.686 50.6389 115.13 50.904 114.541 51.0451C114.25 51.1342 113.944 51.163 113.641 51.1299C113.338 51.0969 113.046 51.0025 112.781 50.8527C112.034 50.3525 111.903 49.2452 112.276 48.4285C112.545 47.9045 112.91 47.4349 113.35 47.0433C113.687 46.7184 114.036 46.4063 114.384 46.0942C114.697 45.8141 115.01 45.5341 115.322 45.254C115.716 44.8843 116.135 44.5428 116.577 44.2322C117.282 43.7705 118.075 43.4576 118.906 43.3128C119.737 43.1679 120.588 43.1942 121.409 43.39C122.394 43.6251 123.71 43.2938 124.612 43.7534C125.083 43.9949 126.125 44.9206 126.539 45.2498C127.596 46.0899 126.88 45.4053 128.037 45.8911C130.796 47.0493 129.576 58.7382 127.592 59.6707Z" fill="#2F2E41"/>
<path d="M50.5984 110.35C74.4155 110.35 93.7231 91.0714 93.7231 67.2902C93.7231 43.509 74.4155 24.2305 50.5984 24.2305C26.7812 24.2305 7.47363 43.509 7.47363 67.2902C7.47363 91.0714 26.7812 110.35 50.5984 110.35Z" fill="white"/>
<path d="M50.5982 110.78C26.5818 110.78 7.04297 91.2705 7.04297 67.2903C7.04297 43.3101 26.5818 23.8008 50.5982 23.8008C74.6145 23.8008 94.1533 43.3101 94.1533 67.2903C94.1533 91.2705 74.6145 110.78 50.5982 110.78ZM50.5982 24.6604C27.0565 24.6604 7.9039 43.7842 7.9039 67.2903C7.9039 90.7964 27.0565 109.92 50.5982 109.92C74.1398 109.92 93.2924 90.7964 93.2924 67.2903C93.2924 43.7842 74.1398 24.6604 50.5982 24.6604Z" fill="#019FE9"/>
<path d="M44.7149 89.7004C43.9702 89.7004 43.2358 89.5272 42.5697 89.1946C41.9037 88.862 41.3244 88.379 40.8777 87.784L29.1126 72.1207C28.7347 71.6175 28.4597 71.0448 28.3034 70.4355C28.147 69.8262 28.1124 69.1921 28.2016 68.5694C28.2907 67.9468 28.5017 67.3477 28.8227 66.8065C29.1437 66.2653 29.5683 65.7925 30.0722 65.4151C30.5762 65.0377 31.1497 64.7632 31.7599 64.6071C32.3701 64.451 33.0052 64.4165 33.6288 64.5054C34.2524 64.5944 34.8523 64.8052 35.3944 65.1256C35.9364 65.4461 36.4099 65.8701 36.7879 66.3733L44.485 76.6199L64.2541 47.0114C64.9602 45.9552 66.0574 45.2223 67.3045 44.9736C68.5517 44.725 69.8467 44.981 70.9048 45.6853C71.963 46.3897 72.6978 47.4848 72.9476 48.73C73.1974 49.9751 72.9418 51.2683 72.237 52.3253L48.7068 87.5673C48.2811 88.2047 47.7086 88.7309 47.0373 89.1017C46.366 89.4726 45.6154 89.6773 44.8485 89.6988C44.804 89.6996 44.7594 89.7004 44.7149 89.7004Z" fill="#019FE9"/>
<path d="M95.0287 26.92C95.1487 26.0968 94.2851 25.2898 93.0999 25.1176C91.9147 24.9455 90.8567 25.4732 90.7367 26.2965C90.6168 27.1197 91.4803 27.9267 92.6655 28.0989C93.8507 28.2711 94.9088 27.7433 95.0287 26.92Z" fill="#990ECA"/>
<path d="M109.14 25.545C109.26 24.7218 108.396 23.9148 107.211 23.7427C106.026 23.5705 104.968 24.0983 104.848 24.9215C104.728 25.7447 105.592 26.5517 106.777 26.7239C107.962 26.8961 109.02 26.3683 109.14 25.545Z" fill="#3F3D56"/>
<path d="M91.1645 15.5138C91.2844 14.6905 90.4209 13.8836 89.2357 13.7114C88.0505 13.5392 86.9924 14.067 86.8725 14.8902C86.7525 15.7135 87.6161 16.5204 88.8013 16.6926C89.9865 16.8648 91.0445 16.337 91.1645 15.5138Z" fill="#FF6584"/>
<path d="M85.0333 10.8413C85.039 10.0855 84.6168 9.4696 84.0903 9.46562C83.5638 9.46165 83.1323 10.0711 83.1266 10.8269C83.1209 11.5826 83.543 12.1985 84.0696 12.2025C84.5961 12.2065 85.0276 11.597 85.0333 10.8413Z" fill="#990ECA"/>
<path d="M82.9542 2.13814C82.96 1.38237 82.5378 0.766474 82.0112 0.762498C81.4847 0.758523 81.0532 1.36797 81.0475 2.12374C81.0417 2.87951 81.464 3.49541 81.9905 3.49939C82.517 3.50336 82.9485 2.89391 82.9542 2.13814Z" fill="#3F3D56"/>
<path d="M99.1242 17.4545C99.1299 16.6988 98.7077 16.0829 98.1812 16.0789C97.6546 16.0749 97.2231 16.6844 97.2174 17.4402C97.2117 18.1959 97.6339 18.8118 98.1604 18.8158C98.687 18.8198 99.1185 18.2103 99.1242 17.4545Z" fill="#990ECA"/>
<path d="M92.3048 20.855C92.3105 20.0992 91.8883 19.4833 91.3618 19.4793C90.8353 19.4753 90.4038 20.0848 90.3981 20.8406C90.3923 21.5963 90.8145 22.2122 91.3411 22.2162C91.8676 22.2202 92.2991 21.6107 92.3048 20.855Z" fill="#FF6584"/>
<path d="M101.797 27.1382C101.803 26.3824 101.381 25.7665 100.854 25.7625C100.327 25.7585 99.896 26.368 99.8902 27.1238C99.8845 27.8795 100.307 28.4954 100.833 28.4994C101.36 28.5034 101.791 27.8939 101.797 27.1382Z" fill="#3F3D56"/>
<path d="M14.102 128.93C14.2219 128.107 13.3584 127.3 12.1732 127.127C10.988 126.955 9.92994 127.483 9.80998 128.306C9.69002 129.13 10.5536 129.936 11.7388 130.109C12.924 130.281 13.982 129.753 14.102 128.93Z" fill="#990ECA"/>
<path d="M28.2123 127.555C28.3323 126.732 27.4687 125.925 26.2835 125.752C25.0983 125.58 24.0403 126.108 23.9203 126.931C23.8004 127.754 24.6639 128.561 25.8491 128.734C27.0343 128.906 28.0923 128.378 28.2123 127.555Z" fill="#3F3D56"/>
<path d="M10.2377 117.524C10.3577 116.7 9.49412 115.893 8.30893 115.721C7.12373 115.549 6.06568 116.077 5.94572 116.9C5.82576 117.723 6.68931 118.53 7.87451 118.702C9.05971 118.875 10.1177 118.347 10.2377 117.524Z" fill="#FF6584"/>
<path d="M4.10564 112.851C4.11136 112.095 3.68915 111.479 3.16261 111.475C2.63606 111.471 2.20456 112.081 2.19884 112.837C2.19312 113.592 2.61533 114.208 3.14188 114.212C3.66843 114.216 4.09992 113.607 4.10564 112.851Z" fill="#990ECA"/>
<path d="M2.02653 104.148C2.03225 103.392 1.61004 102.776 1.0835 102.772C0.556951 102.768 0.125462 103.378 0.119739 104.134C0.114015 104.889 0.536224 105.505 1.06277 105.509C1.58932 105.513 2.0208 104.904 2.02653 104.148Z" fill="#3F3D56"/>
<path d="M18.1964 119.464C18.2022 118.709 17.78 118.093 17.2534 118.089C16.7269 118.085 16.2954 118.694 16.2897 119.45C16.2839 120.206 16.7061 120.822 17.2327 120.826C17.7592 120.83 18.1907 120.22 18.1964 119.464Z" fill="#990ECA"/>
<path d="M11.3771 122.865C11.3829 122.109 10.9606 121.493 10.4341 121.489C9.90755 121.485 9.47605 122.095 9.47032 122.85C9.4646 123.606 9.88682 124.222 10.4134 124.226C10.9399 124.23 11.3714 123.62 11.3771 122.865Z" fill="#FF6584"/>
<path d="M20.8693 129.148C20.875 128.392 20.4528 127.776 19.9263 127.772C19.3997 127.768 18.9682 128.378 18.9625 129.134C18.9568 129.889 19.379 130.505 19.9055 130.509C20.4321 130.513 20.8636 129.904 20.8693 129.148Z" fill="#3F3D56"/>
</svg>
