<svg width="28" height="28" viewBox="0 0 28 28" fill="none" xmlns="http://www.w3.org/2000/svg">
<g clip-path="url(#clip0_3023_28684)">
<path d="M0 23.9528C0.0663286 23.6339 0.115666 23.3106 0.200632 22.9966C0.890231 20.4481 3.11635 18.6964 5.78484 18.6679C8.84692 18.6377 11.9096 18.6607 14.9722 18.6607C15.027 18.6607 15.078 18.6679 15.1503 18.6728V22.1555H11.6722V27.9999H0V23.9528Z" fill="#21005D"/>
<path d="M11.9283 0C12.312 0.0964384 12.7138 0.158905 13.0855 0.295343C15.601 1.21863 17.0734 3.0011 17.4632 5.66192C17.4681 5.69699 17.4785 5.73096 17.4955 5.80384H18.6494V8.12329H2.36108V5.81315H3.49525C3.58899 5.38794 3.6449 4.98027 3.76933 4.59507C4.59159 2.06521 6.31997 0.552329 8.93419 0.051507C8.98561 0.0379619 9.03599 0.0207487 9.08494 0H9.35903C9.35647 1.52 9.35428 3.04 9.35245 4.56C9.35245 4.58301 9.37438 4.60603 9.38479 4.62685H11.657V0H11.9283Z" fill="#21005D"/>
<path d="M17.4905 10.498C17.5535 14.0049 14.6362 17.4712 10.5052 17.4674C6.35442 17.4641 3.4535 13.9868 3.52093 10.498H17.4905Z" fill="#21005D"/>
<path d="M14.0188 27.9847V24.5156H19.8294V27.9847H14.0188Z" fill="#21005D"/>
<path d="M22.1873 27.982V24.5195H27.9946V27.982H22.1873Z" fill="#21005D"/>
<path d="M22.1943 12.8496H27.9934V16.3197H22.1943V12.8496Z" fill="#21005D"/>
<path d="M17.5249 18.6758H23.3256V22.1443H17.5249V18.6758Z" fill="#21005D"/>
<path d="M25.6921 22.1411V18.6797H27.9999V22.1411H25.6921Z" fill="#21005D"/>
</g>
<defs>
<clipPath id="clip0_3023_28684">
<rect width="28" height="28" fill="white"/>
</clipPath>
</defs>
</svg>
