<svg width="26" height="28" viewBox="0 0 26 28" fill="none" xmlns="http://www.w3.org/2000/svg">
<g clip-path="url(#clip0_3022_28655)">
<path d="M20.0858 0.00585938C20.6656 0.653414 21.2426 1.30316 21.8263 1.94688C22.5665 2.76276 22.6703 3.89228 22.081 4.79809C21.798 5.22979 21.3788 5.55714 20.8883 5.72934C20.3978 5.90155 19.8635 5.90899 19.3683 5.7505C18.8642 5.58892 18.4284 5.26709 18.1287 4.83517C17.829 4.40325 17.6824 3.88551 17.7115 3.36262C17.7399 2.84003 17.9504 2.34327 18.3074 1.95675C18.8235 1.38577 19.3391 0.814618 19.8544 0.243279C19.9199 0.170353 19.972 0.0859132 20.0303 0.00640822L20.0858 0.00585938Z" fill="#21005D"/>
<path d="M5.90922 0.00585938C6.49514 0.659993 7.0905 1.30645 7.66478 1.971C8.27512 2.67503 8.42216 3.48544 8.08758 4.34628C7.75467 5.19781 7.10327 5.69238 6.18443 5.8163C5.70818 5.87601 5.22485 5.79052 4.79913 5.57128C4.37341 5.35204 4.02562 5.00952 3.80234 4.58956C3.57905 4.1696 3.49092 3.69226 3.54974 3.22144C3.60855 2.75062 3.81152 2.30878 4.13146 1.9551C4.64747 1.38413 5.16368 0.813338 5.68006 0.24273C5.74553 0.169804 5.79769 0.0853643 5.85595 0.00585938H5.90922Z" fill="#21005D"/>
<path d="M25.9867 25.6785H23.6419V28.0012H17.7282V25.6983H8.28178V27.9951H2.37922V25.6922H0.0382851C0.0202483 25.6421 0.00742053 25.5903 0 25.5376C0.00776798 23.8971 -0.0144262 22.2554 0.0338463 20.616C0.0921061 18.6223 0.619774 16.7339 1.49201 14.9388C2.19039 13.5026 2.89099 12.0678 3.5938 10.6345C4.3989 8.99838 5.73333 8.17756 7.56935 8.17373C11.1859 8.16605 14.8028 8.16605 18.4201 8.17373C20.2561 8.17373 21.5939 8.99235 22.4001 10.6274C23.1702 12.1906 23.9465 13.7528 24.6844 15.3292C25.5639 17.2071 25.9767 19.1964 25.995 21.263C26.0078 22.6573 25.9983 24.0522 25.9983 25.4471C25.9972 25.5091 25.9917 25.5716 25.9867 25.6785ZM5.3244 15.1592H20.6612C20.6146 15.0534 20.5818 14.9717 20.5435 14.8927C20.1058 13.9907 19.6558 13.0943 19.2341 12.1841C19.0593 11.8057 18.8013 11.667 18.3918 11.6681C14.8685 11.6769 11.3455 11.6785 7.82292 11.673C7.72138 11.673 7.61984 11.6774 7.5183 11.673C7.17373 11.6566 6.94957 11.8085 6.80143 12.1183C6.38584 12.9906 5.95582 13.8564 5.53191 14.7249C5.46811 14.8543 5.40763 14.9848 5.3244 15.1592ZM20.6823 22.1776C20.9151 22.1776 21.1456 22.1321 21.3606 22.0439C21.5757 21.9556 21.7709 21.8262 21.9352 21.6632C22.0995 21.5002 22.2296 21.3067 22.3181 21.0939C22.4065 20.881 22.4515 20.6531 22.4506 20.423C22.4447 19.9619 22.2565 19.5215 21.9262 19.1957C21.596 18.87 21.1499 18.6849 20.6834 18.6799C20.4483 18.6758 20.2148 18.718 19.9965 18.804C19.7781 18.8901 19.5793 19.0182 19.4116 19.181C19.2439 19.3438 19.1107 19.538 19.0198 19.7522C18.9289 19.9664 18.882 20.1964 18.882 20.4287C18.882 20.661 18.9289 20.891 19.0198 21.1052C19.1107 21.3195 19.2439 21.5136 19.4116 21.6764C19.5793 21.8392 19.7781 21.9674 19.9965 22.0534C20.2148 22.1395 20.4483 22.1817 20.6834 22.1776H20.6823ZM7.08385 20.4345C7.0848 20.2043 7.0397 19.9761 6.95116 19.7632C6.86261 19.5502 6.73236 19.3567 6.56789 19.1936C6.40341 19.0306 6.20795 18.9013 5.99275 18.8131C5.77754 18.7249 5.54682 18.6797 5.31386 18.6799C4.84986 18.6869 4.40719 18.8736 4.08117 19.2C3.75515 19.5263 3.57186 19.9661 3.57077 20.4247C3.56968 20.8833 3.75087 21.3239 4.07533 21.6518C4.3998 21.9796 4.84157 22.1684 5.30553 22.1776C5.53877 22.1809 5.77032 22.1381 5.98663 22.0519C6.20295 21.9656 6.39967 21.8376 6.56528 21.6752C6.73089 21.5129 6.86205 21.3196 6.9511 21.1065C7.04014 20.8935 7.08527 20.665 7.08385 20.4345Z" fill="#21005D"/>
<path d="M12.9974 0C13.6522 0.731994 14.3058 1.40313 14.8901 2.12909C15.6358 3.05683 15.4793 4.42541 14.5938 5.22759C14.1605 5.61931 13.5952 5.83769 13.0079 5.84022C12.4206 5.84276 11.8534 5.62927 11.4167 5.2413C10.5344 4.46983 10.3508 3.09795 11.0782 2.17076C11.663 1.42287 12.335 0.742412 12.9974 0Z" fill="#21005D"/>
</g>
<defs>
<clipPath id="clip0_3022_28655">
<rect width="26" height="28" fill="white"/>
</clipPath>
</defs>
</svg>
