<svg width="24" height="30" viewBox="0 0 24 30" fill="none" xmlns="http://www.w3.org/2000/svg">
<path d="M16.6535 13.7038H15.3759V3.48295C15.3759 2.07758 14.226 0.927734 12.8207 0.927734H10.2654C8.86007 0.927734 7.71022 2.07758 7.71022 3.48295V13.7038H6.43261C2.9064 13.7038 0.0445557 16.5657 0.0445557 20.0919V29.0352H23.0415V20.0919C23.0415 16.5657 20.1797 13.7038 16.6535 13.7038ZM20.4863 26.4799H17.9311V22.6471C17.9311 21.9444 17.3562 21.3695 16.6535 21.3695C15.9508 21.3695 15.3759 21.9444 15.3759 22.6471V26.4799H12.8207V22.6471C12.8207 21.9444 12.2457 21.3695 11.543 21.3695C10.8404 21.3695 10.2654 21.9444 10.2654 22.6471V26.4799H7.71022V22.6471C7.71022 21.9444 7.13529 21.3695 6.43261 21.3695C5.72992 21.3695 5.155 21.9444 5.155 22.6471V26.4799H2.59978V20.0919C2.59978 17.9838 4.32455 16.2591 6.43261 16.2591H16.6535C18.7615 16.2591 20.4863 17.9838 20.4863 20.0919V26.4799Z" fill="#21005D"/>
</svg>
