<svg width="29" height="28" viewBox="0 0 29 28" fill="none" xmlns="http://www.w3.org/2000/svg">
<g clip-path="url(#clip0_3022_28662)">
<path d="M16.9358 0C16.9307 0.373151 16.9222 0.746304 16.9222 1.11945C16.9222 2.95982 16.9222 4.80037 16.9222 6.6411V6.99123H21.7318V9.32932H20.5548V11.6855C19.8352 11.874 19.1332 11.9945 18.4811 12.24C14.8819 13.5945 12.7628 16.1211 12.1732 19.817C12.1076 20.2772 12.0774 20.7415 12.083 21.206C12.0739 23.3474 12.079 25.4888 12.079 27.6301V27.9797H9.67442V21C9.23687 21 8.8328 21.0126 8.42986 21C5.37625 20.8882 3.18035 19.505 1.84215 16.8504C1.37736 15.9271 1.20483 14.9326 1.2037 13.9074C1.2037 12.5039 1.2037 11.1006 1.2037 9.69754V9.35397H0V7H4.82841V6.62849C4.82841 4.78228 4.82841 2.93607 4.82841 1.08986C4.82841 0.726576 4.8199 0.363288 4.81479 0H7.25227V6.98137H14.5023V0H16.9358Z" fill="#21005D"/>
<path d="M29 20.9948C29.0001 21.9151 28.8123 22.8263 28.4475 23.6765C28.0827 24.5267 27.548 25.2992 26.8738 25.9497C26.1997 26.6003 25.3994 27.1163 24.5187 27.4681C23.638 27.8199 22.6941 28.0008 21.7409 28.0003C17.7473 27.9953 14.5011 24.8595 14.5 21.0052C14.4986 19.1487 15.261 17.3677 16.6197 16.0539C17.9783 14.7402 19.8218 14.0014 21.7446 14C23.6674 13.9986 25.5121 14.7348 26.8727 16.0466C28.2334 17.3584 28.9986 19.1383 29 20.9948ZM22.1711 26.7679C23.1586 25.3833 24.1574 24.0479 25.0842 22.6644C25.8997 21.4425 24.9627 19.8649 23.4548 19.8436C22.8794 19.8353 22.3039 19.8436 21.7284 19.8436H20.9816L23.2119 16.5384L21.2001 15.2425C20.8079 15.7942 20.4095 16.3236 20.0441 16.8742C19.4397 17.7855 18.8409 18.7016 18.2762 19.6364C18.1435 19.8759 18.0871 20.148 18.1139 20.4184C18.215 21.437 19.0191 22.1384 20.0843 22.1636C20.7818 22.1805 21.4804 22.1679 22.1785 22.1685H22.5354L20.1655 25.4644L22.1711 26.7679Z" fill="#21005D"/>
</g>
<defs>
<clipPath id="clip0_3022_28662">
<rect width="29" height="28" fill="white"/>
</clipPath>
</defs>
</svg>
