<svg width="28" height="28" viewBox="0 0 28 28" fill="none" xmlns="http://www.w3.org/2000/svg">
<g clip-path="url(#clip0_3023_28680)">
<path d="M0 16.5248V16.3605C0.619532 16.3605 1.23961 16.3364 1.85805 16.3605C4.83465 16.4864 7.4541 17.4949 9.64027 19.5514C10.9095 20.7455 11.8861 22.1515 12.6421 23.7124C12.6892 23.8099 12.7412 23.9046 12.7905 24.0004C12.8398 22.2002 12.8365 20.4246 12.8453 18.6491C12.8453 18.4613 12.7905 18.3589 12.6213 18.2702C11.7399 17.8043 10.9073 16.5182 11.2951 15.2589C11.4928 14.6145 11.5942 13.9405 11.7508 13.2266C11.6544 13.3005 11.6029 13.3361 11.5558 13.3771C11.0267 13.8376 10.5079 14.3079 9.96729 14.7541C9.75785 14.9265 9.51955 15.0605 9.2634 15.15C8.63055 15.3595 7.94424 15.3408 7.32377 15.097C6.7033 14.8533 6.18792 14.3999 5.8672 13.8157C4.90477 12.0691 6.02223 10.0138 7.54011 9.74663C7.99969 9.6656 8.44338 9.49532 8.89475 9.36337C8.4264 9.18434 7.95915 9.06498 7.50231 8.91497C7.22075 8.82298 6.92331 8.72772 6.68667 8.55909C5.63714 7.80955 5.24548 6.46378 5.69246 5.25215C6.37554 3.40049 8.66359 2.79823 10.1492 4.0794C10.3562 4.25788 10.5605 4.43965 10.7665 4.61924L11.7602 5.48046C11.6468 4.97019 11.5438 4.53875 11.4556 4.10458C11.3619 3.64248 11.1965 3.17382 11.2129 2.71501C11.2529 1.56525 11.8555 0.733039 12.8968 0.269301C13.9518 -0.199911 14.9822 -0.0646759 15.8685 0.674457C16.7093 1.37581 17.0971 2.27536 16.815 3.39665C16.6468 4.06461 16.5148 4.74133 16.3571 5.45911C16.4496 5.38739 16.5077 5.34961 16.5603 5.30143C17.1081 4.82345 17.6558 4.34329 18.2107 3.86806C18.2983 3.78931 18.3966 3.72332 18.5027 3.67205C19.527 3.2116 20.5169 3.2888 21.4223 3.94581C22.3278 4.60281 22.7321 5.54069 22.565 6.64391C22.3935 7.77889 21.7921 8.60946 20.6149 8.91989C20.1499 9.04254 19.6897 9.18434 19.1518 9.33928C19.6662 9.48766 20.1126 9.60482 20.5519 9.74718C20.8346 9.83861 21.1397 9.918 21.3736 10.0855C22.2889 10.736 22.7025 11.6503 22.5738 12.7601C22.4461 13.8595 21.8436 14.6654 20.8116 15.0722C19.7927 15.4741 18.816 15.3892 17.9631 14.6085C17.5068 14.1902 17.0319 13.7922 16.5636 13.3864C16.5088 13.3388 16.4469 13.3005 16.3527 13.2321C16.4622 13.7193 16.5641 14.1524 16.6534 14.5882C16.7465 15.0416 16.9076 15.4993 16.8966 15.9515C16.8703 17.0301 16.3143 17.8234 15.3716 18.3364C15.2111 18.4241 15.158 18.5144 15.1591 18.6923C15.1657 20.3863 15.1629 22.0803 15.1629 23.7743V23.9785C17.7922 18.6496 21.9997 16.0227 27.9989 16.3621C27.9233 16.983 27.8663 17.5814 27.7749 18.1744C27.41 20.5462 26.4487 22.6267 24.7161 24.3169C22.7441 26.2391 20.3383 27.2816 17.6652 27.7727C17.1574 27.8663 16.6425 27.9216 16.1314 27.995H11.8664C11.8076 27.9745 11.7471 27.9589 11.6857 27.9485C9.82651 27.793 8.05063 27.3221 6.38156 26.4888C2.87581 24.7368 0.781126 21.9505 0.209798 18.0539C0.134753 17.5491 0.0695673 17.0367 0 16.5248ZM13.9962 11.6728C14.4569 11.6721 14.9072 11.5349 15.2899 11.2784C15.6726 11.0219 15.9706 10.6578 16.1462 10.232C16.3218 9.80618 16.3671 9.33789 16.2764 8.88636C16.1857 8.43483 15.963 8.02034 15.6365 7.69533C15.3101 7.37033 14.8945 7.14941 14.4424 7.06053C13.9902 6.97165 13.5219 7.0188 13.0966 7.19602C12.6713 7.37324 12.3082 7.67257 12.0531 8.05612C11.7981 8.43968 11.6626 8.89023 11.6637 9.35078C11.6659 9.96755 11.9127 10.5583 12.3499 10.9936C12.7871 11.4288 13.3791 11.673 13.9962 11.6728Z" fill="#21005D"/>
</g>
<defs>
<clipPath id="clip0_3023_28680">
<rect width="28" height="28" fill="white"/>
</clipPath>
</defs>
</svg>
