<svg width="22" height="28" viewBox="0 0 22 28" fill="none" xmlns="http://www.w3.org/2000/svg">
<g clip-path="url(#clip0_3023_28706)">
<path d="M12.108 15.9057C13.0853 14.2133 12.8715 12.6567 11.5221 11.5923C10.3619 10.6779 8.6021 10.6988 7.4465 11.6307C6.43981 12.4423 5.64527 14.1974 6.90952 15.9195C6.67955 16.0608 6.44154 16.1944 6.21962 16.3434C5.0485 17.1374 4.285 18.2024 3.95844 19.5391C3.90726 19.7425 3.90497 19.9544 3.95174 20.1589C3.99851 20.3633 4.09312 20.5549 4.22847 20.7193C4.36382 20.8838 4.53638 21.0167 4.73318 21.1082C4.92998 21.1996 5.1459 21.2472 5.36471 21.2474C6.41681 21.2628 7.46892 21.2524 8.52103 21.2529H8.90451C8.79297 21.3266 8.74008 21.3689 8.68086 21.3997C7.93076 21.7796 7.32932 22.3814 6.96644 23.1152C6.88998 23.2659 6.81524 23.3352 6.63011 23.3352C5.00423 23.328 3.37835 23.3352 1.75189 23.3297C0.750947 23.3264 0.00699747 22.6193 0.00584762 21.6648C0.00163152 17.9412 0.00163152 14.2174 0.00584762 10.4931C0.00584762 9.54465 0.735426 8.83811 1.72487 8.83756C6.90914 8.83279 12.0934 8.83279 17.2777 8.83756C18.2763 8.83756 19.0024 9.5298 19.0024 10.4816C19.0088 13.5189 19.0025 16.5567 19.0071 19.5946C19.0071 19.737 18.9858 19.825 18.8179 19.8728C17.2892 20.3066 15.7639 20.7493 14.2369 21.1886C14.2214 21.1935 14.2013 21.1842 14.1559 21.1776C14.249 21.1226 14.3255 21.0792 14.3996 21.033C14.9533 20.6882 15.2045 20.095 15.0441 19.4874C14.6417 17.9852 13.7333 16.8482 12.3351 16.0635C12.2695 16.0267 12.2023 15.9921 12.1373 15.9536C12.1235 15.942 12.1178 15.9211 12.108 15.9057Z" fill="#21005D"/>
<path d="M20.1247 23.9168C19.9827 23.4676 19.8527 23.0492 19.7176 22.6319C19.6027 22.2811 19.3836 22.137 19.0944 22.2261C18.8052 22.3152 18.7161 22.5461 18.8254 22.9002C18.9541 23.3197 19.0864 23.7381 19.2278 24.1835L18.0619 24.5211C17.9095 24.0439 17.7744 23.5979 17.6249 23.1564C17.5036 22.8012 17.127 22.6852 16.8591 22.9128C16.6866 23.0574 16.6717 23.2389 16.7355 23.4396C16.8746 23.8751 17.0092 24.3122 17.1552 24.7812L15.9904 25.1199C15.845 24.6646 15.711 24.2374 15.5719 23.8118C15.4632 23.4819 15.2396 23.3417 14.9636 23.4269C14.6876 23.5122 14.5819 23.7431 14.6819 24.0725C14.8124 24.5008 14.9464 24.928 15.0884 25.3855C14.729 25.4899 14.3806 25.5768 14.0454 25.6978C13.9215 25.7463 13.8212 25.8378 13.7649 25.954C13.1647 27.4347 11.6451 28.2369 9.97902 27.9395C8.44398 27.6645 7.34242 26.357 7.34645 24.8125C7.3499 23.3236 8.52447 22.0084 10.094 21.7334C11.0076 21.574 11.8423 21.7543 12.5869 22.2833C12.7392 22.3932 12.8623 22.3965 13.0313 22.3476C15.4143 21.6532 17.8031 20.9681 20.1816 20.2692C20.4213 20.1994 20.58 20.2219 20.7565 20.3979C21.1095 20.7448 21.4872 21.0698 21.8627 21.3953C21.9811 21.4981 22.0271 21.5916 21.9846 21.7494C21.8449 22.2712 21.7253 22.7979 21.5913 23.3214C21.5723 23.3945 21.5338 23.5034 21.4763 23.521C21.0371 23.6612 20.5898 23.7838 20.1247 23.9168ZM12.2287 24.8274C12.2287 24.0246 11.5733 23.3863 10.7506 23.3868C9.87496 23.3868 9.1839 24.0213 9.19195 24.8164C9.193 25.2048 9.35452 25.577 9.6413 25.852C9.92808 26.127 10.3169 26.2824 10.723 26.2845C11.1241 26.2805 11.5074 26.1252 11.7894 25.8523C12.0715 25.5794 12.2293 25.2111 12.2287 24.8274Z" fill="#21005D"/>
<path d="M15.4832 8.03672H13.0375C13.0375 7.90531 13.0375 7.78984 13.0375 7.67438C13.0191 6.81553 13.0852 5.94568 12.9616 5.10113C12.7173 3.42687 11.0316 2.19523 9.29191 2.3195C7.45216 2.45091 6.01485 3.8508 5.9654 5.57289C5.94585 6.28768 5.96023 6.99972 5.95908 7.71287V8.05267H3.55533C3.53003 8.01363 3.51221 7.99768 3.51221 7.98394C3.54555 6.89855 3.46219 5.79503 3.63581 4.72999C4.19464 1.29734 7.32682 -0.252102 10.1675 0.0332643C12.9887 0.315882 15.4148 2.34754 15.4953 5.80657C15.5103 6.46638 15.4953 7.12344 15.4953 7.78215C15.4965 7.86407 15.4884 7.9438 15.4832 8.03672Z" fill="#21005D"/>
<path d="M9.4915 20.3547H5.61997C4.94156 20.3547 4.72942 20.0886 4.93006 19.4749C5.35263 18.185 6.20179 17.2437 7.48387 16.6708C7.54126 16.6507 7.60229 16.6418 7.66333 16.6447C7.72438 16.6477 7.78418 16.6623 7.83917 16.6878C8.94475 17.2613 10.0463 17.2668 11.1456 16.6878C11.287 16.613 11.3928 16.6026 11.5365 16.6697C12.8397 17.2767 13.694 18.244 14.0995 19.5717C14.2524 20.0704 14.0236 20.3541 13.4763 20.3563C12.1488 20.3574 10.8201 20.3547 9.4915 20.3547Z" fill="#21005D"/>
<path d="M9.57202 16.2146C8.2681 16.2212 7.20506 15.2557 7.19586 14.0571C7.18666 12.8353 8.22727 11.8066 9.47428 11.8027C10.7926 11.8027 11.8131 12.7836 11.8096 14.0532C11.8039 15.2326 10.7972 16.208 9.57202 16.2146Z" fill="#21005D"/>
<path d="M12.3982 21.2578H13.8424C13.4083 21.5547 12.9231 21.5712 12.3982 21.2578Z" fill="#21005D"/>
<path d="M10.6947 25.3765C11.035 25.382 11.2886 25.1565 11.2926 24.842C11.2957 24.6943 11.2375 24.5513 11.1308 24.4445C11.024 24.3377 10.8773 24.2756 10.7229 24.2718C10.6485 24.2693 10.5744 24.281 10.5049 24.3064C10.4354 24.3317 10.372 24.3702 10.3183 24.4195C10.2647 24.4688 10.222 24.5279 10.1927 24.5933C10.1634 24.6587 10.1482 24.7291 10.1479 24.8002C10.1393 25.1323 10.3664 25.3715 10.6947 25.3765Z" fill="white"/>
<path d="M10.6948 25.3765C10.366 25.3715 10.1395 25.1323 10.1492 24.8002C10.1495 24.7291 10.1647 24.6587 10.194 24.5933C10.2232 24.5279 10.266 24.4688 10.3196 24.4195C10.3732 24.3702 10.4367 24.3317 10.5062 24.3064C10.5757 24.281 10.6498 24.2693 10.7242 24.2718C10.8786 24.2756 11.0253 24.3377 11.132 24.4445C11.2388 24.5513 11.297 24.6943 11.2939 24.842C11.2864 25.1554 11.0352 25.382 10.6948 25.3765Z" fill="#21005D"/>
</g>
<defs>
<clipPath id="clip0_3023_28706">
<rect width="22" height="28" fill="white"/>
</clipPath>
</defs>
</svg>
