<svg width="29" height="29" viewBox="0 0 29 29" fill="none" xmlns="http://www.w3.org/2000/svg">
<path d="M24.532 28.0463H18.6697V25.7278H9.35652V28.0463H3.49426V25.6959H1.16363C1.15869 25.6021 1.1532 25.5395 1.1532 25.4764C1.1532 24.0492 1.14168 22.6276 1.1576 21.2032C1.1801 19.1992 1.57531 17.267 2.40909 15.443C3.15175 13.8183 3.93942 12.2133 4.72325 10.6078C5.51257 8.9918 6.82554 8.17669 8.62044 8.17175C12.2168 8.1615 15.8134 8.1615 19.4102 8.17175C21.204 8.17669 22.5142 8.9951 23.3074 10.6072C24.0133 12.0481 24.7043 13.4961 25.3981 14.9435C26.2643 16.75 26.7858 18.6508 26.8423 20.657C26.8884 22.29 26.8681 23.9246 26.8752 25.5587C26.8684 25.6119 26.8564 25.6643 26.8396 25.7152H24.5342L24.532 28.0463ZM21.5904 15.168C21.5514 15.0725 21.5257 14.9973 21.4916 14.926C21.0459 13.9978 20.592 13.074 20.1572 12.1403C20.0019 11.8055 19.767 11.6726 19.4052 11.6726C15.8103 11.6781 12.2156 11.6781 8.62099 11.6726C8.25762 11.6726 8.02708 11.8126 7.87174 12.1452C7.44031 13.0696 6.98911 13.9852 6.5467 14.9046C6.50883 14.9831 6.47425 15.0637 6.42704 15.168H21.5904ZM21.6069 22.194C21.8374 22.1948 22.0657 22.15 22.2789 22.0623C22.492 21.9747 22.6857 21.8458 22.8489 21.683C23.0121 21.5203 23.1416 21.3269 23.2299 21.114C23.3181 20.9011 23.3635 20.6729 23.3634 20.4424C23.3601 19.4796 22.5554 18.681 21.5981 18.6898C21.1334 18.6907 20.6881 18.8762 20.3602 19.2055C20.0323 19.5347 19.8486 19.9808 19.8496 20.4454C19.8505 20.9101 20.036 21.3554 20.3653 21.6833C20.6945 22.0112 21.1406 22.1949 21.6052 22.194H21.6069ZM8.16266 20.455C8.16433 20.2245 8.12044 19.996 8.03353 19.7824C7.94661 19.5689 7.81838 19.3747 7.6562 19.2109C7.49401 19.0471 7.30106 18.9169 7.08843 18.8278C6.87581 18.7388 6.64768 18.6926 6.41716 18.692C5.95152 18.6954 5.50602 18.8823 5.17722 19.212C4.84842 19.5417 4.66283 19.9878 4.66068 20.4534C4.66068 20.9178 4.84516 21.3632 5.17353 21.6915C5.50191 22.0199 5.94728 22.2044 6.41167 22.2044C6.87606 22.2044 7.32143 22.0199 7.64981 21.6915C7.97818 21.3632 8.16266 20.9178 8.16266 20.4534V20.455Z" fill="#21005D"/>
<path d="M28.0378 5.90837C27.9917 5.97204 27.9412 6.03297 27.9006 6.10048C27.0882 7.43925 25.9059 8.16819 24.3328 8.15996C22.7508 8.15227 21.5641 7.41071 20.7764 6.04395C20.6837 5.88312 20.5898 5.83646 20.4153 5.83646C16.143 5.84085 11.8707 5.84085 7.59843 5.83646C7.41674 5.83646 7.33166 5.89849 7.24219 6.05328C6.46385 7.40028 5.29524 8.1391 3.73582 8.16051C2.17639 8.18191 0.991315 7.47822 0.161926 6.16251C0.119446 6.09238 0.0807847 6.02 0.0461091 5.94569C0.0380441 5.91192 0.0345364 5.87721 0.0356799 5.8425H3.47344V2.33832H0C0.0631236 2.20768 0.0998992 2.10943 0.153691 2.0216C0.977042 0.685031 2.17639 -0.021953 3.7424 0.00110083C5.28591 0.0236058 6.45836 0.751997 7.23176 2.09131C7.3388 2.27684 7.44693 2.33832 7.65606 2.33777C11.8917 2.33118 16.1276 2.33118 20.3637 2.33777C20.5832 2.33777 20.693 2.26257 20.8028 2.07375C21.5992 0.723454 22.792 -0.0016439 24.358 2.79855e-06C25.924 0.0016495 27.1096 0.736627 27.9116 2.08582L28.0373 2.29331V2.3482H24.5518V5.8414H24.9234L28.0373 5.85458L28.0378 5.90837Z" fill="#21005D"/>
</svg>
