<svg width="26" height="28" viewBox="0 0 26 28" fill="none" xmlns="http://www.w3.org/2000/svg">
<g clip-path="url(#clip0_3023_28674)">
<path d="M21.6568 27.9995C21.4463 27.9447 21.2336 27.897 21.0248 27.835C19.2498 27.3159 18.0361 25.5452 18.3052 23.7783C18.3819 23.2773 18.5968 22.7823 18.825 22.3223C19.4205 21.125 21.116 18.964 22.1545 18.0156C22.6479 18.5786 23.1489 19.1345 23.6312 19.7041C24.341 20.5407 24.967 21.4441 25.5001 22.4012C26.9597 25.0162 24.9819 27.6848 22.6921 27.954C22.6576 27.9635 22.6249 27.9781 22.5948 27.9973L21.6568 27.9995Z" fill="#21005D"/>
<path d="M15.7617 4.09288V5.23917C15.7617 5.73255 15.7617 6.22593 15.7617 6.71932C15.7617 7.66223 16.2992 8.18741 17.2467 8.19947C20.1906 8.22962 22.4341 9.49267 23.9362 12.0056C24.7483 13.3652 24.9858 14.864 24.8919 16.4461H19.0852C19.0852 16.2186 19.0852 16.002 19.0852 15.7849C19.0791 14.6688 18.4029 13.9973 17.2815 13.9967H5.49243V8.23839C5.57088 8.23455 5.66866 8.22633 5.76865 8.22633C6.32938 8.22633 6.8901 8.23017 7.45083 8.22633C8.46842 8.21536 9.1214 7.56519 9.12638 6.55924C9.13024 5.84658 9.12638 5.13392 9.12638 4.42509V4.10658H11.593V2.44992H7.48287V0.80531H11.609V0H13.2697V0.802566H17.4074V2.43676H13.2956V4.09288H15.7617Z" fill="#21005D"/>
<path d="M0 6.57451C0.72922 6.60082 1.46673 6.47145 2.18324 6.69347C2.65812 6.83538 3.07513 7.12367 3.37381 7.51656C3.67249 7.90944 3.83732 8.38651 3.84442 8.87861C3.86542 10.3642 3.87039 11.8504 3.84442 13.3355C3.82177 14.6062 2.78264 15.6034 1.5054 15.6314C1.0082 15.6423 0.515426 15.6314 0.0011049 15.6314L0 6.57451Z" fill="#21005D"/>
</g>
<defs>
<clipPath id="clip0_3023_28674">
<rect width="26" height="28" fill="white"/>
</clipPath>
</defs>
</svg>
