<svg width="128" height="128" viewBox="0 0 128 128" fill="none" xmlns="http://www.w3.org/2000/svg">
<g clip-path="url(#clip0_2894_33279)">
<rect x="0.251953" y="0.251953" width="127.496" height="127.496" rx="41.5194" fill="#5D50C6"/>
<path d="M37.4814 78.521C39.4697 79.4101 41.4257 80.3962 43.4545 81.1721C46.623 82.3845 49.751 83.9283 53.0407 84.5103C62.7401 86.2319 69.6751 78.7554 67.5898 69.153C66.6639 65.142 64.6043 61.4817 61.6565 58.6084C58.7087 55.7351 54.9969 53.7699 50.9635 52.947C43.406 51.4921 35.3475 56.6974 33.3268 64.6428L37.3197 65.7178C39.8173 63.293 41.5955 60.755 44.0446 59.4051C48.5467 56.9318 52.9357 58.2412 56.7184 61.5067C60.7113 64.9823 63.0715 69.2985 62.045 74.7463C61.4388 77.9794 58.2784 80.0082 54.6573 79.1676C51.0362 78.327 47.6576 76.7427 44.1497 75.5222C41.7248 74.6735 39.4131 73.445 36.956 73.0974C33.1409 72.5963 30.7161 75.5222 31.395 79.2969C31.5643 80.44 31.9571 81.5386 32.5508 82.53C40.3669 94.3228 50.9877 101.799 65.4963 101.711C84.6526 101.605 97.8922 86.9028 96.7767 67.8032C96.0493 55.2425 90.2216 38.3252 83.723 30.1777L80.1585 32.4005C83.3431 40.4833 86.7137 48.0084 89.3082 55.8406C91.6165 62.4085 92.0888 69.4817 90.6742 76.2982C89.9001 79.7343 88.435 82.977 86.3681 85.8291C84.3013 88.6812 81.6759 91.0831 78.6516 92.8886C75.6272 94.6941 72.2673 95.8655 68.776 96.3316C65.2847 96.7978 61.7351 96.5488 58.3431 95.5999C50.6782 93.5032 43.907 88.9626 39.0575 82.6674C38.2583 81.5086 37.5399 80.296 36.9075 79.0383L37.4814 78.521Z" fill="white" stroke="white" stroke-width="1.64101" stroke-miterlimit="10"/>
<path d="M38.6856 32.6924C38.7584 34.3089 38.8311 35.9255 38.9119 37.631C56.3385 38.4393 67.0967 46.9989 71.1946 64.1102L75.9554 63.3908C75.43 48.4862 59.2725 30.8899 38.6856 32.6924Z" fill="white" stroke="white" stroke-width="1.64101" stroke-miterlimit="10"/>
<path d="M60.493 22.7168C59.4504 24.2444 58.5208 25.6185 57.462 27.1623C69.8368 35.9322 77.669 47.531 80.8213 62.4923L86.2368 61.8456C82.7935 45.2193 74.355 32.3757 60.493 22.7168Z" fill="white" stroke="white" stroke-width="1.64101" stroke-miterlimit="10"/>
</g>
<defs>
<clipPath id="clip0_2894_33279">
<rect width="128" height="128" fill="white"/>
</clipPath>
</defs>
</svg>
